<svg width="438" height="438" viewBox="0 0 438 438" fill="none" xmlns="http://www.w3.org/2000/svg">
<path d="M397.581 202.776C411.335 114.808 337.943 26.1398 241.592 15.1285L237.992 14.743C170.662 8.05914 109.115 59.4891 91.5245 98.7164C73.9344 137.944 27.8743 175.253 44.9388 247.961C62.0033 320.669 108.379 359.396 217.099 370.863C325.819 382.33 345.871 351.232 374.779 283.307C385.595 257.48 393.252 230.44 397.581 202.776Z" fill="#BED9E2"/>
<path opacity="0.7" d="M397.581 202.776C411.335 114.808 337.943 26.1398 241.592 15.1285L237.992 14.743C170.662 8.05914 109.115 59.4891 91.5245 98.7164C73.9344 137.944 27.8743 175.253 44.9388 247.961C62.0033 320.669 108.379 359.396 217.099 370.863C325.819 382.33 345.871 351.232 374.779 283.307C385.595 257.48 393.252 230.44 397.581 202.776Z" fill="white"/>
<path opacity="0.15" d="M223.678 419.253C317.38 419.253 393.342 408.582 393.342 395.418C393.342 382.253 317.38 371.582 223.678 371.582C129.975 371.582 54.0142 382.253 54.0142 395.418C54.0142 408.582 129.975 419.253 223.678 419.253Z" fill="black"/>
<path d="M408.295 341.254C406.298 340.326 403.126 336.559 403.126 336.559C403.126 336.559 406.263 335.236 406.464 335.184C408.891 334.509 413.963 334.632 415.522 336.936C415.768 337.33 415.928 337.772 415.991 338.232C416.055 338.693 416.02 339.161 415.889 339.607C415.758 340.053 415.535 340.466 415.233 340.82C414.931 341.173 414.558 341.459 414.138 341.657C412.377 342.595 409.968 342.052 408.295 341.254Z" fill="#92E3A9"/>
<path d="M396.408 349.322C394.796 347.956 392.851 343.83 392.702 343.497C390.324 344.603 387.875 345.548 385.37 346.326C383.916 346.791 382.435 347.202 380.937 347.623C381.647 347.535 382.286 347.465 382.374 347.465C384.888 347.465 389.75 348.893 390.635 351.547C390.768 351.992 390.806 352.46 390.746 352.92C390.687 353.38 390.531 353.823 390.288 354.218C390.046 354.614 389.723 354.955 389.341 355.218C388.958 355.48 388.524 355.659 388.068 355.743C386.123 356.164 383.968 355.016 382.54 353.799C381.113 352.581 379.361 349.086 378.914 348.157L377.162 348.604C374.411 349.313 371.661 350.006 368.98 350.768C368.034 351.03 367.114 351.328 366.194 351.644C366.825 351.574 367.351 351.512 367.438 351.512C369.952 351.512 374.814 352.94 375.699 355.594C375.832 356.043 375.868 356.515 375.804 356.979C375.741 357.443 375.58 357.888 375.331 358.285C375.083 358.682 374.753 359.021 374.363 359.281C373.973 359.54 373.533 359.714 373.071 359.79C371.135 360.211 368.971 359.063 367.543 357.846C366.115 356.628 364.539 353.466 364.039 352.371C363.111 352.704 362.173 353.028 361.28 353.387C360.675 353.65 360.08 353.86 359.528 354.158L357.776 355.034C356.681 355.603 355.542 356.181 354.491 356.786C353.755 357.18 353.063 357.574 352.362 357.968C353.3 357.697 355.139 357.189 355.297 357.162C357.785 356.777 362.813 357.469 364.057 359.966C364.257 360.385 364.367 360.841 364.378 361.306C364.388 361.77 364.301 362.232 364.12 362.66C363.94 363.087 363.671 363.472 363.331 363.789C362.99 364.105 362.587 364.346 362.147 364.495C360.29 365.204 357.986 364.389 356.383 363.408C354.631 362.322 352.161 358.695 351.854 358.24C350.698 358.897 349.577 359.545 348.534 360.176C347.492 360.807 346.712 361.28 345.906 361.805L344.75 360.491C345.678 359.931 346.668 359.352 347.719 358.739C348.771 358.126 350.155 357.373 351.46 356.672C350.991 355.343 350.6 353.989 350.286 352.616C348.166 352.555 344.356 350.987 343.865 350.785C343.269 351.968 342.7 353.124 342.183 354.219C341.815 354.972 341.482 355.708 341.158 356.409L339.888 354.946L340.641 353.422C341.246 352.222 341.912 350.952 342.612 349.646C342.183 349.322 338.662 346.659 337.672 344.855C336.796 343.217 336.095 340.886 336.918 339.091C337.1 338.66 337.37 338.273 337.71 337.954C338.051 337.635 338.454 337.39 338.895 337.237C339.336 337.083 339.804 337.024 340.27 337.062C340.735 337.101 341.187 337.237 341.596 337.461C344.023 338.863 344.434 343.891 343.891 346.326C343.891 346.466 343.339 347.991 343.015 348.954C343.304 348.42 343.576 347.903 343.891 347.36C344.478 346.283 345.1 345.231 345.775 344.093C346.108 343.549 346.458 343.006 346.808 342.454C347.159 341.903 347.562 341.359 347.938 340.808C348.814 339.546 349.831 338.302 350.847 337.076C349.901 336.559 346.554 334.676 345.416 333.178C344.277 331.68 343.243 329.49 343.786 327.589C343.9 327.136 344.108 326.711 344.396 326.344C344.685 325.976 345.047 325.674 345.461 325.456C345.874 325.238 346.328 325.109 346.794 325.078C347.26 325.047 347.728 325.114 348.166 325.276C350.794 326.301 351.951 331.207 351.793 333.694C351.793 333.852 351.46 335.622 351.267 336.594C351.889 335.867 352.502 335.131 353.151 334.404C355.017 332.328 356.979 330.278 358.923 328.228L360.675 326.336C360.334 326.152 356.295 323.997 355.034 322.324C353.904 320.835 352.87 318.636 353.413 316.735C353.527 316.282 353.735 315.858 354.024 315.49C354.312 315.123 354.675 314.82 355.088 314.602C355.501 314.384 355.955 314.255 356.421 314.224C356.888 314.193 357.355 314.261 357.793 314.422C360.421 315.447 361.578 320.353 361.411 322.841C361.411 323.025 360.947 325.574 360.798 326.222C362.095 324.829 363.374 323.428 364.582 322C366.218 320.078 367.728 318.053 369.103 315.938C368.945 315.85 364.723 313.616 363.426 311.908C362.287 310.419 361.262 308.212 361.797 306.319C361.911 305.866 362.119 305.442 362.407 305.074C362.695 304.707 363.058 304.403 363.471 304.185C363.883 303.966 364.338 303.836 364.804 303.804C365.27 303.772 365.738 303.838 366.177 303.998C368.805 305.032 369.961 309.937 369.803 312.425C369.803 312.618 369.295 315.36 369.173 315.85L369.418 315.482C370.737 313.324 371.859 311.052 372.773 308.693C373.29 307.397 373.719 306.127 374.105 304.883C373.272 304.55 369.514 302.973 368.165 301.554C366.816 300.135 365.599 298.129 365.923 296.184C365.987 295.722 366.147 295.279 366.393 294.883C366.639 294.486 366.965 294.146 367.35 293.884C367.736 293.621 368.172 293.442 368.63 293.359C369.089 293.275 369.56 293.289 370.014 293.398C372.729 294.134 374.394 298.882 374.551 301.379C374.551 301.51 374.464 302.894 374.385 303.902C374.551 303.341 374.735 302.763 374.884 302.22C375.436 300.179 375.822 298.286 376.146 296.596C376.33 295.641 376.47 294.765 376.592 293.968C375.953 293.214 373.421 290.157 372.887 288.326C372.353 286.496 372.204 284.113 373.395 282.536C373.666 282.156 374.013 281.836 374.414 281.598C374.815 281.359 375.262 281.207 375.725 281.151C376.188 281.095 376.658 281.136 377.105 281.272C377.551 281.408 377.965 281.636 378.318 281.94C380.394 283.832 379.693 288.826 378.642 291.086C378.555 291.279 376.776 294.178 376.741 294.134L376.698 294.09C376.601 294.879 376.479 295.729 376.33 296.648C376.041 298.339 375.699 300.257 375.182 302.316C374.652 304.537 373.991 306.725 373.202 308.869C372.332 311.281 371.244 313.609 369.952 315.824C369.952 315.824 369.952 315.877 369.909 315.903C370.513 315.351 372.274 313.871 372.423 313.774C374.516 312.39 379.369 310.927 381.577 312.662C381.935 312.957 382.227 313.326 382.433 313.742C382.639 314.159 382.754 314.615 382.77 315.079C382.787 315.544 382.705 316.007 382.529 316.437C382.354 316.867 382.089 317.256 381.752 317.576C380.368 318.995 377.933 319.214 376.067 318.986C373.964 318.724 370.049 316.358 369.742 316.148C368.377 318.373 366.864 320.504 365.213 322.525C364.25 323.708 363.251 324.873 362.235 326.029C362.778 325.565 363.268 325.153 363.347 325.153C365.432 323.769 370.285 322.315 372.501 324.05C372.859 324.346 373.15 324.715 373.355 325.131C373.559 325.548 373.674 326.004 373.69 326.468C373.707 326.932 373.625 327.394 373.451 327.824C373.276 328.254 373.012 328.643 372.677 328.964C371.293 330.374 368.857 330.602 366.991 330.366C365.126 330.129 361.735 328.167 360.859 327.633L359.677 328.955C357.776 331.049 355.866 333.134 354.062 335.236C353.422 335.972 352.818 336.725 352.222 337.479C352.704 337.067 353.098 336.734 353.177 336.69C355.271 335.298 360.124 333.843 362.331 335.578C362.69 335.873 362.982 336.242 363.187 336.659C363.393 337.075 363.508 337.531 363.525 337.996C363.541 338.46 363.459 338.923 363.283 339.353C363.108 339.784 362.843 340.172 362.506 340.492C361.122 341.911 358.687 342.13 356.821 341.894C354.955 341.657 351.88 339.888 350.829 339.266C350.234 340.054 349.638 340.843 349.077 341.631C348.718 342.183 348.341 342.682 348.009 343.252C347.676 343.821 347.343 344.364 347.01 344.907C346.414 345.985 345.792 347.088 345.258 348.148C344.864 348.884 344.505 349.594 344.145 350.303C344.767 349.559 346.029 348.131 346.143 348.026C347.829 346.601 349.853 345.632 352.021 345.214C352.203 345.048 352.399 344.898 352.608 344.767C352.996 344.508 353.434 344.332 353.894 344.252C354.353 344.172 354.825 344.189 355.278 344.302C355.731 344.415 356.155 344.621 356.524 344.908C356.892 345.195 357.196 345.556 357.417 345.967C358.661 348.473 356.208 352.879 354.403 354.613C354.298 354.718 353.019 355.7 352.205 356.304C352.739 356.024 353.256 355.735 353.808 355.428C354.903 354.85 356.006 354.315 357.198 353.729L358.95 352.94C359.537 352.66 360.194 352.441 360.816 352.187C362.279 351.626 363.785 351.136 365.318 350.671C364.81 349.716 363.076 346.291 362.953 344.443C362.83 342.595 363.19 340.186 364.705 338.898C365.05 338.582 365.457 338.342 365.9 338.193C366.343 338.044 366.813 337.99 367.278 338.034C367.744 338.078 368.195 338.218 368.603 338.447C369.011 338.676 369.366 338.988 369.646 339.362C371.258 341.648 369.506 346.37 367.99 348.359C367.894 348.481 366.641 349.787 365.94 350.487C366.869 350.216 367.78 349.944 368.726 349.699C371.442 348.989 374.218 348.35 376.987 347.71L379.518 347.097C379.334 346.764 377.179 342.761 377.039 340.667C376.917 338.81 377.284 336.41 378.791 335.122C379.131 334.811 379.531 334.572 379.966 334.422C380.402 334.272 380.864 334.213 381.323 334.249C381.783 334.285 382.23 334.416 382.637 334.632C383.044 334.849 383.401 335.147 383.688 335.508C385.3 337.794 383.548 342.516 382.032 344.513C381.918 344.662 380.114 346.528 379.632 346.983C381.489 346.537 383.338 346.107 385.142 345.538C387.579 344.837 389.967 343.977 392.29 342.962C392.203 342.805 389.934 338.635 389.794 336.498C389.671 334.64 390.039 332.24 391.546 330.953C391.89 330.637 392.298 330.397 392.741 330.248C393.184 330.099 393.654 330.045 394.119 330.089C394.585 330.132 395.036 330.273 395.443 330.502C395.851 330.731 396.206 331.042 396.486 331.417C398.098 333.703 396.346 338.425 394.831 340.413C394.708 340.571 392.772 342.586 392.395 342.927L392.807 342.761C395.107 341.678 397.308 340.397 399.386 338.933C400.533 338.136 401.593 337.312 402.61 336.489C402.102 335.753 399.841 332.38 399.5 330.462C399.158 328.544 399.272 326.205 400.621 324.759C400.929 324.408 401.307 324.126 401.731 323.93C402.155 323.733 402.616 323.628 403.083 323.621C403.55 323.614 404.013 323.704 404.443 323.886C404.873 324.069 405.26 324.339 405.579 324.68C407.436 326.783 406.219 331.688 404.931 333.808C404.861 333.922 404.055 335.026 403.389 335.823C403.845 335.446 404.318 335.061 404.738 334.693C406.341 333.3 407.717 331.925 408.926 330.699C409.609 329.998 410.213 329.349 410.774 328.736C410.651 327.764 410.24 323.831 410.818 322.009C411.396 320.186 412.57 318.128 414.462 317.462C414.896 317.292 415.362 317.214 415.828 317.234C416.294 317.254 416.751 317.371 417.169 317.578C417.588 317.785 417.958 318.077 418.257 318.436C418.555 318.795 418.775 319.212 418.903 319.661C419.578 322.376 416.223 326.152 414.085 327.457C413.901 327.571 410.809 329.017 410.8 328.964V328.903C410.275 329.507 409.705 330.138 409.048 330.83C407.866 332.083 406.517 333.458 404.94 334.921C403.262 336.485 401.493 337.948 399.64 339.301C397.573 340.83 395.374 342.173 393.07 343.313L392.982 343.357C393.797 343.234 396.092 342.962 396.267 342.962C398.781 342.962 403.652 344.39 404.528 347.045C404.661 347.49 404.699 347.959 404.638 348.421C404.577 348.882 404.42 349.325 404.176 349.721C403.932 350.118 403.607 350.458 403.222 350.72C402.837 350.981 402.402 351.159 401.944 351.241C399.99 351.687 397.835 350.54 396.408 349.322Z" fill="#92E3A9"/>
<path d="M374.543 304.62C374.49 304.62 376.417 301.808 376.566 301.642C378.204 299.758 382.505 297.078 385.098 298.138C385.522 298.329 385.9 298.607 386.209 298.955C386.517 299.303 386.749 299.712 386.888 300.155C387.027 300.599 387.07 301.067 387.015 301.528C386.961 301.99 386.809 302.434 386.57 302.833C385.615 304.585 383.32 305.417 381.463 305.68C379.308 306.03 374.551 304.62 374.543 304.62Z" fill="#92E3A9"/>
<path d="M24.966 341.254C26.9545 340.326 30.1256 336.559 30.1344 336.559C30.1431 336.559 26.9983 335.236 26.7881 335.184C24.3703 334.509 19.2895 334.632 17.739 336.936C17.4925 337.329 17.3321 337.771 17.2682 338.231C17.2043 338.691 17.2385 339.159 17.3683 339.605C17.4982 340.051 17.7209 340.464 18.0218 340.818C18.3227 341.172 18.695 341.458 19.1143 341.657C20.8751 342.595 23.2665 342.052 24.966 341.254Z" fill="#92E3A9"/>
<path d="M36.8533 349.322C38.4652 347.956 40.4099 343.83 40.5588 343.497C42.9361 344.605 45.3858 345.55 47.8909 346.327C49.3451 346.791 50.8255 347.203 52.2709 347.623C51.5613 347.535 50.9306 347.465 50.843 347.465C48.3289 347.465 43.4584 348.893 42.5824 351.548C42.4479 351.996 42.4109 352.469 42.4736 352.933C42.5364 353.398 42.6975 353.843 42.9462 354.241C43.195 354.638 43.5256 354.977 43.9161 355.236C44.3065 355.496 44.7478 355.669 45.2104 355.744C47.1551 356.164 49.31 355.016 50.7379 353.799C52.1658 352.581 53.9178 349.086 54.3646 348.157C54.934 348.306 55.5033 348.464 56.1166 348.604C58.8672 349.314 61.6178 350.006 64.2984 350.768C65.2357 351.031 66.1555 351.329 67.0841 351.644L65.8402 351.512C63.326 351.512 58.4555 352.94 57.5795 355.595C57.4465 356.044 57.4106 356.516 57.4739 356.98C57.5373 357.443 57.6987 357.889 57.9472 358.285C58.1957 358.682 58.5257 359.022 58.9154 359.281C59.3051 359.541 59.7455 359.714 60.2075 359.791C62.1522 360.211 64.3072 359.064 65.735 357.846C67.1629 356.628 68.7485 353.466 69.239 352.371C70.1764 352.704 71.1137 353.028 72.0072 353.387C72.6029 353.65 73.2073 353.86 73.7592 354.158L75.5112 355.034C76.6062 355.603 77.7362 356.182 78.7962 356.786C79.532 357.18 80.2241 357.574 80.9249 357.969C79.9875 357.697 78.1392 357.189 77.9815 357.163C75.5024 356.777 70.4742 357.469 69.2215 359.966C69.0339 360.379 68.934 360.827 68.9281 361.281C68.9223 361.735 69.0107 362.186 69.1877 362.604C69.3646 363.022 69.6264 363.399 69.9564 363.711C70.2864 364.023 70.6774 364.263 71.1049 364.416C72.962 365.126 75.2659 364.311 76.8602 363.33C78.6122 362.243 81.0913 358.617 81.3979 358.161C82.5542 358.818 83.6668 359.467 84.7179 360.097C85.7691 360.728 86.5313 361.201 87.346 361.727L88.511 360.413C87.5825 359.852 86.5926 359.274 85.5414 358.661C84.4902 358.047 83.0974 357.294 81.7921 356.593C82.265 355.266 82.6599 353.911 82.9747 352.537C85.0946 352.476 88.8965 350.908 89.387 350.707C89.9915 351.889 90.5609 353.045 91.0777 354.14C91.4369 354.894 91.7785 355.63 92.1026 356.33L93.329 354.938C93.0925 354.438 92.8385 353.939 92.5757 353.413C91.98 352.213 91.3055 350.943 90.6134 349.638C91.0427 349.314 94.5642 346.651 95.5453 344.846C96.4213 343.208 97.1221 340.878 96.3074 339.082C96.1259 338.652 95.8561 338.265 95.5156 337.945C95.175 337.626 94.7713 337.382 94.3305 337.228C93.8896 337.075 93.4214 337.015 92.9562 337.054C92.491 337.093 92.039 337.228 91.6296 337.453C89.1943 338.854 88.7914 343.883 89.3345 346.318C89.3345 346.458 89.8776 347.982 90.2105 348.946C89.9214 348.411 89.6498 347.895 89.3345 347.351C88.7388 346.274 88.1168 345.223 87.4511 344.084L86.4174 342.446C86.0845 341.894 85.664 341.351 85.2786 340.799C84.4026 339.538 83.3952 338.294 82.379 337.067C83.3251 336.55 86.6714 334.667 87.8102 333.169C88.949 331.671 89.974 329.481 89.4396 327.58C89.3246 327.128 89.116 326.705 88.8272 326.338C88.5385 325.971 88.176 325.669 87.7633 325.451C87.3505 325.233 86.8966 325.104 86.4309 325.073C85.9652 325.041 85.498 325.107 85.0596 325.268C82.4316 326.292 81.2753 331.198 81.433 333.686C81.433 333.844 81.7571 335.613 81.9498 336.585C81.3366 335.858 80.7234 335.123 80.0752 334.395C78.2005 332.319 76.247 330.269 74.3023 328.22L72.5503 326.327C72.892 326.144 76.9303 323.989 78.1918 322.315C79.3306 320.826 80.3555 318.627 79.8211 316.727C79.7073 316.273 79.4995 315.849 79.211 315.482C78.9225 315.114 78.5599 314.812 78.1468 314.594C77.7337 314.375 77.2792 314.247 76.8131 314.216C76.3469 314.185 75.8795 314.252 75.4411 314.414C72.8131 315.439 71.6568 320.344 71.8145 322.832C71.8145 323.016 72.2875 325.565 72.4364 326.214C71.14 324.821 69.861 323.419 68.6521 321.991C67.0169 320.07 65.507 318.045 64.132 315.929C64.2896 315.842 68.512 313.608 69.8084 311.9C70.9385 310.411 71.9722 308.203 71.4378 306.311C71.3238 305.858 71.1159 305.434 70.8276 305.066C70.5393 304.698 70.1769 304.395 69.764 304.176C69.3512 303.957 68.8969 303.828 68.4307 303.795C67.9646 303.763 67.4968 303.829 67.0578 303.989C64.4298 305.023 63.2647 309.929 63.4312 312.417C63.4312 312.609 63.9392 315.351 64.0619 315.842L63.8078 315.474C62.4919 313.315 61.372 311.043 60.4615 308.685C59.9359 307.388 59.5154 306.118 59.13 304.874C60.006 304.541 63.7202 302.965 65.0693 301.545C66.4183 300.126 67.6272 298.12 67.3031 296.176C67.2415 295.713 67.0832 295.269 66.8386 294.873C66.5941 294.476 66.2686 294.135 65.8835 293.872C65.4984 293.609 65.0623 293.43 64.6036 293.347C64.1448 293.264 63.6737 293.279 63.2209 293.39C60.4966 294.126 58.8409 298.874 58.6832 301.37C58.6832 301.502 58.7621 302.886 58.8409 303.893C58.6832 303.332 58.4993 302.754 58.3504 302.211C57.7897 300.17 57.413 298.278 57.0802 296.587C56.905 295.632 56.7648 294.756 56.6422 293.959C57.2729 293.206 59.8133 290.149 60.3476 288.318C60.882 286.487 61.0222 284.104 59.8308 282.527C59.561 282.146 59.2143 281.826 58.8131 281.586C58.4118 281.347 57.965 281.195 57.5013 281.138C57.0375 281.082 56.5672 281.124 56.1205 281.261C55.6738 281.397 55.2607 281.626 54.9077 281.932C52.8403 283.824 53.5324 288.817 54.5836 291.077C54.6799 291.27 56.4582 294.17 56.4932 294.126V294.082C56.5984 294.87 56.721 295.72 56.8699 296.64C57.159 298.331 57.5006 300.249 58.0175 302.308C58.5476 304.529 59.2087 306.717 59.9972 308.86C60.8683 311.27 61.953 313.598 63.2384 315.815L63.291 315.894C62.6778 315.342 60.917 313.862 60.7681 313.766C58.6832 312.382 53.8302 310.919 51.6139 312.653C51.2565 312.95 50.9658 313.318 50.7609 313.735C50.556 314.152 50.4415 314.607 50.4249 315.071C50.4084 315.535 50.4902 315.997 50.6649 316.428C50.8396 316.858 51.1033 317.246 51.4387 317.567C52.8228 318.987 55.2581 319.206 57.124 318.978C59.2264 318.715 63.1421 316.35 63.4574 316.14C64.822 318.365 66.3351 320.495 67.9864 322.517C68.9412 323.7 69.9398 324.865 70.956 326.021C70.4129 325.557 69.9311 325.145 69.8522 325.145C67.7673 323.761 62.9056 322.307 60.698 324.041C60.3394 324.337 60.0476 324.705 59.8418 325.122C59.6361 325.539 59.5212 325.994 59.5046 326.459C59.4881 326.923 59.5703 327.386 59.7458 327.816C59.9213 328.247 60.1861 328.635 60.5228 328.955C61.9069 330.366 64.3422 330.594 66.2081 330.357C68.074 330.121 71.4641 328.158 72.3401 327.624C72.7343 328.062 73.1197 328.5 73.5227 328.947C75.4236 331.04 77.3333 333.125 79.1378 335.228C79.7773 335.963 80.373 336.717 80.9774 337.47C80.4956 337.058 80.1014 336.726 80.0138 336.682C78.0428 335.228 73.1898 333.756 70.956 335.508C70.5986 335.804 70.3079 336.173 70.103 336.59C69.898 337.006 69.7836 337.462 69.767 337.926C69.7505 338.39 69.8322 338.852 70.007 339.283C70.1817 339.713 70.4454 340.101 70.7808 340.422C72.1649 341.841 74.6089 342.06 76.466 341.824C78.3232 341.587 81.4067 339.818 82.4666 339.196C83.0623 339.984 83.658 340.773 84.2186 341.561C84.569 342.113 84.9545 342.612 85.2786 343.182L86.2772 344.837C86.8729 345.915 87.4949 347.019 88.0292 348.079C88.4234 348.814 88.7826 349.524 89.1505 350.234C88.5198 349.489 87.2671 348.061 87.1445 347.956C85.4642 346.532 83.4462 345.564 81.284 345.144C81.1068 344.976 80.9131 344.826 80.7059 344.697C80.3178 344.438 79.8798 344.262 79.4199 344.182C78.96 344.102 78.4884 344.119 78.0354 344.232C77.5825 344.345 77.1582 344.552 76.7899 344.838C76.4215 345.125 76.1173 345.486 75.8966 345.897C74.644 348.403 77.0968 352.809 78.9013 354.543C79.0064 354.649 80.2854 355.63 81.1088 356.234C80.5745 355.954 80.0576 355.665 79.497 355.358C78.4108 354.78 77.2982 354.246 76.1069 353.659L74.3549 352.87C73.7679 352.59 73.1197 352.371 72.489 352.117C71.0348 351.556 69.5194 351.066 67.9951 350.601C68.4944 349.647 70.2377 346.221 70.3603 344.373C70.483 342.525 70.115 340.116 68.6083 338.828C68.2635 338.512 67.8564 338.272 67.4132 338.123C66.97 337.975 66.5005 337.92 66.035 337.964C65.5695 338.008 65.1183 338.149 64.7106 338.377C64.3028 338.606 63.9476 338.918 63.6677 339.292C62.0558 341.579 63.8078 346.3 65.3233 348.289C65.4197 348.411 66.6636 349.717 67.3644 350.417C66.4884 350.146 65.5248 349.874 64.5875 349.629C61.8631 348.92 59.0862 348.28 56.3268 347.641L53.7952 347.027C53.9791 346.694 56.1341 342.691 56.2742 340.598C56.3969 338.74 56.029 336.34 54.5222 335.052C54.1776 334.738 53.7711 334.499 53.3287 334.351C52.8864 334.203 52.4179 334.15 51.9536 334.193C51.4892 334.237 51.039 334.377 50.6321 334.605C50.2251 334.833 49.8703 335.144 49.5904 335.517C47.9698 337.803 49.7218 342.525 51.2372 344.522C51.3599 344.671 53.1557 346.537 53.6375 346.992C51.7803 346.546 49.932 346.116 48.1362 345.547C45.6996 344.846 43.3118 343.986 40.988 342.971C41.0756 342.814 43.3445 338.644 43.4846 336.507C43.6073 334.65 43.2394 332.249 41.7326 330.962C41.3886 330.646 40.9822 330.406 40.5397 330.257C40.0972 330.109 39.6283 330.054 39.1636 330.098C38.6988 330.142 38.2483 330.283 37.8413 330.511C37.4343 330.74 37.0798 331.052 36.8007 331.426C35.1801 333.712 36.9322 338.434 38.4564 340.422C38.5703 340.58 40.515 342.595 40.8917 342.936L40.4799 342.77C38.179 341.689 35.9776 340.408 33.9012 338.942C32.7449 338.145 31.6849 337.321 30.6775 336.498C31.1768 335.762 33.4369 332.389 33.7786 330.471C34.1202 328.553 34.0151 326.214 32.6573 324.768C32.3491 324.417 31.9709 324.135 31.547 323.939C31.123 323.742 30.6627 323.637 30.1957 323.63C29.7286 323.622 29.2652 323.713 28.8352 323.895C28.4053 324.078 28.0183 324.348 27.6991 324.689C25.842 326.792 27.0596 331.697 28.3474 333.817C28.4174 333.931 29.2233 335.035 29.8891 335.832L28.5401 334.702C26.9458 333.309 25.5617 331.934 24.3528 330.707C23.6695 330.007 23.0738 329.358 22.5132 328.745C22.6271 327.773 23.0475 323.84 22.4694 322.018C21.8912 320.195 20.7174 318.137 18.8252 317.471C18.3908 317.301 17.9255 317.223 17.4592 317.243C16.9929 317.263 16.536 317.38 16.1177 317.587C15.6994 317.794 15.3291 318.086 15.0305 318.445C14.7319 318.804 14.5117 319.221 14.3839 319.67C13.7094 322.385 17.0645 326.161 19.2019 327.466C19.3859 327.58 22.4781 329.026 22.4869 328.973V328.912C23.0037 329.516 23.5819 330.147 24.2389 330.839C25.4215 332.092 26.7793 333.467 28.3474 334.93C30.0285 336.49 31.798 337.953 33.6472 339.31C35.7159 340.841 37.9176 342.184 40.2259 343.322L40.296 343.392C39.4813 343.269 37.195 342.998 37.011 342.998C34.5056 342.998 29.6351 344.426 28.7591 347.08C28.6244 347.525 28.5853 347.993 28.6444 348.453C28.7034 348.914 28.8592 349.357 29.1016 349.753C29.344 350.15 29.6675 350.49 30.0508 350.753C30.4341 351.015 30.8686 351.193 31.3257 351.276C33.288 351.688 35.4254 350.54 36.8533 349.322Z" fill="#92E3A9"/>
<path d="M58.692 304.62C58.692 304.62 56.8086 301.808 56.6684 301.642C55.0216 299.758 50.7292 297.078 48.1362 298.138C47.7125 298.329 47.3341 298.607 47.0257 298.955C46.7173 299.303 46.4861 299.712 46.3471 300.155C46.2081 300.599 46.1645 301.067 46.2192 301.528C46.2739 301.99 46.4257 302.434 46.6645 302.833C47.6194 304.585 49.9057 305.417 51.7628 305.68C53.9704 306.03 58.692 304.62 58.692 304.62Z" fill="#92E3A9"/>
<g opacity="0.2">
<path d="M204.388 40.112L223.792 205.842L238.491 39.4287" fill="white"/>
<path d="M204.388 40.112L223.792 205.842L238.491 39.4287" stroke="black" stroke-linecap="round" stroke-linejoin="round"/>
<path d="M129.595 68.109L223.792 205.842L159.467 51.6577" fill="white"/>
<path d="M129.595 68.109L223.792 205.842L159.467 51.6577" stroke="black" stroke-linecap="round" stroke-linejoin="round"/>
<path d="M76.3784 127.668L223.792 205.843L95.1862 99.207" fill="white"/>
<path d="M76.3784 127.668L223.792 205.843L95.1862 99.207" stroke="black" stroke-linecap="round" stroke-linejoin="round"/>
<path d="M56.9312 205.124L223.792 205.843L60.3652 171.188" fill="white"/>
<path d="M56.9312 205.124L223.792 205.843L60.3652 171.188" stroke="black" stroke-linecap="round" stroke-linejoin="round"/>
<path d="M75.7127 282.755L223.792 205.842L62.9844 251.105" fill="white"/>
<path d="M75.7127 282.755L223.792 205.842L62.9844 251.105" stroke="black" stroke-linecap="round" stroke-linejoin="round"/>
<path d="M128.422 342.761L223.792 205.842L102.439 320.651" fill="white"/>
<path d="M128.422 342.761L223.792 205.842L102.439 320.651" stroke="black" stroke-linecap="round" stroke-linejoin="round"/>
<path d="M202.978 371.398L223.792 205.842L169.699 363.899" fill="white"/>
<path d="M202.978 371.398L223.792 205.842L169.699 363.899" stroke="black" stroke-linecap="round" stroke-linejoin="round"/>
<path d="M282.3 362.112L223.792 205.842L249.353 370.933" fill="white"/>
<path d="M282.3 362.112L223.792 205.842L249.353 370.933" stroke="black" stroke-linecap="round" stroke-linejoin="round"/>
<path d="M348.219 317.024L223.792 205.842L323.148 340.142" fill="white"/>
<path d="M348.219 317.024L223.792 205.842L323.148 340.142" stroke="black" stroke-linecap="round" stroke-linejoin="round"/>
<path d="M385.633 246.462L223.792 205.842L374.183 278.594" fill="white"/>
<path d="M385.633 246.462L223.792 205.842L374.183 278.594" stroke="black" stroke-linecap="round" stroke-linejoin="round"/>
<path d="M385.974 166.598L223.792 205.842L390.766 200.367" fill="white"/>
<path d="M385.974 166.598L223.792 205.842L390.766 200.367" stroke="black" stroke-linecap="round" stroke-linejoin="round"/>
<path d="M349.165 95.7207L223.792 205.843L369.094 123.402" fill="white"/>
<path d="M349.165 95.7207L223.792 205.843L369.094 123.402" stroke="black" stroke-linecap="round" stroke-linejoin="round"/>
<path d="M283.631 50.0723L223.792 205.843L314.142 65.3147" fill="white"/>
<path d="M283.631 50.0723L223.792 205.843L314.142 65.3147" stroke="black" stroke-linecap="round" stroke-linejoin="round"/>
</g>
<path d="M377.451 96.246C377.451 96.246 368.209 81.976 363.181 89.6935C358.153 97.4111 378.949 112.47 378.949 112.47C378.949 112.47 392.028 101.406 392.702 91.6733C393.377 81.9409 380.131 87.1882 377.451 96.246Z" stroke="#263238" stroke-linecap="round" stroke-linejoin="round"/>
<path d="M71.832 89.4043C71.832 89.4043 60.8732 72.5413 54.934 81.6605C48.9947 90.7796 73.584 108.624 73.584 108.624C73.584 108.624 89.0454 95.5451 89.8338 84.0432C90.6222 72.5413 74.9681 78.6996 71.832 89.4043Z" stroke="#263238" stroke-linecap="round" stroke-linejoin="round"/>
<path d="M259.559 65.5335C259.559 65.5335 252.358 54.4171 248.434 60.444C244.509 66.4709 260.698 78.218 260.698 78.218C260.698 78.218 270.894 69.5894 271.42 62.012C271.945 54.4346 261.644 58.4817 259.559 65.5335Z" stroke="#263238" stroke-linecap="round" stroke-linejoin="round"/>
<path d="M175.988 293.88C175.988 293.88 168.788 282.764 164.872 288.773C160.956 294.783 177.136 306.547 177.136 306.547C177.136 306.547 187.333 297.919 187.849 290.341C188.366 282.764 178.082 286.82 175.988 293.88Z" stroke="#263238" stroke-linecap="round" stroke-linejoin="round"/>
<path d="M260.225 167.78L260.382 180.666C260.382 180.666 262.581 190.25 262.432 198.581C262.283 206.911 262.581 227.813 262.581 227.813C262.581 227.813 262.117 235.513 261.644 237.869C261.356 239.948 260.604 241.936 259.445 243.686C258.026 245.885 256.458 247.453 254.723 248.066C252.989 248.679 251.272 249.012 251.587 247.908C251.903 246.804 252.525 246.804 253.471 246.025C254.417 245.245 256.3 241.645 256.3 240.366C256.131 238.972 255.814 237.601 255.354 236.275C255.115 237.979 254.749 239.663 254.259 241.312C253.628 243.064 251.903 243.195 252.06 241.312C252.256 239.86 252.306 238.393 252.209 236.932C252.06 235.364 251.903 231.273 252.682 229.862C253.462 228.452 255.354 224.992 255.512 224.046C255.669 223.1 250.483 204.091 249.38 199.22C248.276 194.349 247.172 183.978 246.55 180.517C245.928 177.057 245.28 166.046 245.28 166.046L260.225 167.78Z" fill="#949494" stroke="#263238" stroke-linecap="round" stroke-linejoin="round"/>
<path d="M228.268 362.979C228.323 364.495 228.534 366.001 228.899 367.473C229.407 368.989 231.43 371.52 231.43 374.052C231.43 376.584 230.414 380.64 231.939 383.933C233.463 387.227 240.042 390.267 242.827 389.251C245.613 388.235 249.161 387.989 248.145 382.164C247.128 376.338 244.097 370.776 243.335 367.473C242.573 364.171 242.074 360.632 242.074 360.632C242.074 360.632 231.185 355.954 228.268 362.979Z" fill="white" stroke="#263238" stroke-linecap="round" stroke-linejoin="round"/>
<path d="M215.908 356.646C215.853 358.162 215.641 359.668 215.277 361.14C214.769 362.655 212.745 365.187 212.745 367.727C212.745 370.268 213.753 374.306 212.237 377.6C210.722 380.894 204.134 383.933 201.349 382.917C198.563 381.901 195.015 381.656 196.023 375.83C197.03 370.005 200.078 364.442 200.841 361.14C201.603 357.837 202.102 354.298 202.102 354.298C202.102 354.298 212.991 349.62 215.908 356.646Z" fill="white" stroke="#263238" stroke-linecap="round" stroke-linejoin="round"/>
<path d="M250.133 213.437L193.868 212.106L191.713 216.486L192.808 261.434L196.986 306.924L199.018 333.16C198.607 335.832 198.046 339.529 197.748 341.623C197.24 345.17 198.756 352.52 199.264 354.035C199.772 355.551 201.016 359.108 201.016 359.108C201.016 359.108 206.657 362.612 212.404 360.369C218.15 358.126 216.705 350.488 216.705 350.488C216.705 350.488 217.528 316.166 217.975 311.742C218.422 307.318 221.024 254.268 221.024 254.268L224.256 246.857C224.256 246.857 225.334 302.816 225.334 304.147C225.334 304.743 226.858 314.537 227.611 324.409C227.918 328.36 225.623 346.633 225.859 350.496C226.455 361.157 227.961 363.636 228.137 364.18C228.583 365.511 229.661 368.673 234.978 368.227C240.296 367.78 243.335 367.473 243.335 367.473C243.335 367.473 248.81 310.025 249.695 301.16C250.58 292.295 252.209 236.923 252.209 236.923L250.133 213.437Z" fill="#263238" stroke="#263238" stroke-linecap="round" stroke-linejoin="round"/>
<path d="M207.866 120.327C207.866 120.327 192.974 128.606 189.198 134.019C185.423 139.433 187.543 153.44 188.603 161.263C189.663 169.086 191.914 192.422 191.914 192.422L189.575 228.636C189.575 228.636 212.351 239.323 215.768 239.621C219.184 239.919 221.786 240.226 221.786 240.226L225.044 234.794L228.11 239.928C231.451 239.668 234.717 238.801 237.746 237.37C242.126 235.11 249.178 229.538 249.634 229.092C250.089 228.645 251.412 226.709 251.412 226.709C251.412 226.709 247.277 185.493 247.277 184.293C247.277 183.093 247.742 173.781 247.742 173.781V169.821C247.742 169.821 248.95 171.179 252.709 170.881C255.43 170.573 258.11 169.965 260.698 169.068C260.698 169.068 261.749 157.172 261.749 148.745C261.749 140.318 258.289 135.202 256.493 133.091C254.697 130.98 245.806 125.864 241.137 124.331C236.467 122.798 226.691 119.951 226.245 119.951C225.798 119.951 220.358 116.71 207.866 120.327Z" fill="#F5AF19" stroke="#263238" stroke-linecap="round" stroke-linejoin="round"/>
<path d="M248.469 163.602C251.733 159.844 254.435 155.633 256.493 151.101" stroke="#263238" stroke-linecap="round" stroke-linejoin="round"/>
<path d="M259.795 149.918C259.795 149.918 257.167 154.64 254.364 158.88" stroke="#263238" stroke-linecap="round" stroke-linejoin="round"/>
<path d="M221.654 143.419L224.142 226.148" stroke="#263238" stroke-linecap="round" stroke-linejoin="round"/>
<path d="M208.593 117.787C208.593 117.787 205.256 121.825 204.826 123.104C204.397 124.383 203.547 136.122 203.547 138.049C203.547 139.976 205.045 140.397 206.114 139.538C207.183 138.68 210.941 134.904 210.941 134.904L219.061 141.527C219.061 141.527 221.015 144.085 221.689 143.445C222.364 142.806 227.427 138.102 228.277 136.823C229.104 135.74 230.034 134.739 231.054 133.835C231.054 133.835 234.899 139.6 236.397 140.458C237.895 141.316 238.316 140.239 238.106 139.17C237.895 138.102 236.056 123.989 234.093 121.326C232.131 118.663 232.762 119.311 229.135 117.393C225.509 115.474 214.62 110.954 208.593 117.787Z" fill="white" stroke="#263238" stroke-linecap="round" stroke-linejoin="round"/>
<path d="M247.531 168.805C247.531 168.805 251.219 170.347 254.425 169.515C257.632 168.683 260.014 167.614 260.61 167.018C261.206 166.423 261.793 165.949 261.915 167.737C262.038 169.524 261.793 172.484 261.915 173.439C262.038 174.394 263.107 176.172 259.892 177.819C256.677 179.466 252.525 179.843 250.624 179.247C248.723 178.651 247.417 177.942 247.417 177.583C247.417 177.224 246.699 169.874 247.531 168.805Z" fill="white" stroke="#263238" stroke-linecap="round" stroke-linejoin="round"/>
<path d="M249.52 152.801C249.52 152.801 249.765 154.842 248.802 160.002C248.21 163.25 247.859 166.538 247.75 169.839" stroke="#263238" stroke-linecap="round" stroke-linejoin="round"/>
<path d="M209.82 125.671C209.82 125.671 213.586 134.773 215.846 138.084C218.106 141.395 222.162 142.604 224.72 139.888C227.278 137.173 229.976 130.857 230.292 128.606C230.607 126.354 230.896 124.541 230.896 124.541C230.896 124.541 231.194 128.15 224.571 128.606C217.949 129.061 210.275 123.183 209.82 122.579C209.364 121.974 208.015 121.983 209.82 125.671Z" fill="#878787" stroke="#263238" stroke-linecap="round" stroke-linejoin="round"/>
<path d="M204.108 104.892C204.108 104.892 202.155 102.79 201.103 106.557C200.052 110.323 202.155 112.575 203.206 113.775C203.706 114.376 204.26 114.93 204.861 115.431C204.861 115.431 208.173 123.858 209.828 125.671C211.484 127.484 215.855 133.047 219.464 133.494C223.073 133.94 226.236 132.889 227.742 130.936C229.249 128.982 233.612 123.858 234.067 121.3C234.572 119.003 235.225 116.741 236.021 114.528C236.021 114.528 239.63 108.808 238.579 105.768C237.527 102.729 236.774 104.113 236.774 104.113C236.774 104.113 237.221 89.9565 236.17 85.2962C235.118 80.6358 225.176 75.8441 217.949 76.2996C210.722 76.7552 203.933 82.4316 202.75 85.4801C201.583 88.4423 201.167 91.6476 201.541 94.8095C201.997 97.0696 204.108 104.892 204.108 104.892Z" fill="#949494" stroke="#263238" stroke-linecap="round" stroke-linejoin="round"/>
<path d="M202.864 104.305L204.099 104.892C203.773 104.553 203.334 104.344 202.864 104.305Z" stroke="#263238" stroke-linecap="round" stroke-linejoin="round"/>
<path d="M236.161 85.3311C235.11 80.662 225.176 75.844 217.949 76.2995C210.722 76.755 203.933 82.4315 202.75 85.48C201.583 88.4422 201.167 91.6475 201.541 94.8094C201.997 97.0695 204.099 104.892 204.099 104.892C204.099 104.892 204.406 108.054 205.457 107.608C206.508 107.161 206.21 105.952 205.913 104.296C205.619 103.27 205.516 102.198 205.606 101.134C205.755 100.381 205.913 96.9205 207.717 94.8094C209.522 92.6982 209.671 92.707 211.633 93.4603C213.595 94.2137 217.765 96.3161 222.145 95.2649C226.525 94.2137 229.67 91.7609 231.027 92.4004C232.385 93.0399 232.385 97.0695 232.981 99.7763C233.337 101.393 234.178 102.863 235.39 103.99C235.39 103.99 235.092 109.71 235.845 108.51C236.599 107.31 236.721 104.13 236.721 104.13C236.721 104.13 237.212 89.9914 236.161 85.3311Z" fill="#263238" stroke="#263238" stroke-linecap="round" stroke-linejoin="round"/>
<path d="M216.749 118.821C216.749 118.821 216.144 120.774 216.749 121.23C217.353 121.685 219.911 122.737 221.409 122.43C222.627 122.176 223.733 121.545 224.571 120.625C224.878 120.17 224.422 118.672 224.422 118.672" stroke="#263238" stroke-linecap="round" stroke-linejoin="round"/>
<path d="M215.093 124.541C217.005 125.303 219.054 125.661 221.111 125.592C222.917 125.314 224.625 124.588 226.078 123.481" stroke="#263238" stroke-linecap="round" stroke-linejoin="round"/>
<path d="M226.98 113.705C227.692 113.705 228.268 112.834 228.268 111.76C228.268 110.686 227.692 109.815 226.98 109.815C226.269 109.815 225.693 110.686 225.693 111.76C225.693 112.834 226.269 113.705 226.98 113.705Z" fill="#263238"/>
<path d="M215.181 111.76C215.181 112.829 214.603 113.705 213.884 113.705C213.166 113.705 212.596 112.829 212.596 111.76C212.596 110.691 213.175 109.815 213.884 109.815C214.594 109.815 215.181 110.683 215.181 111.76Z" fill="#263238"/>
<path d="M209.522 108.282C210.437 107.659 211.531 107.351 212.638 107.405C213.744 107.459 214.803 107.871 215.654 108.58" stroke="#263238" stroke-linecap="round" stroke-linejoin="round"/>
<path d="M223.818 108.738C224.929 107.786 226.345 107.262 227.808 107.262C229.272 107.262 230.687 107.786 231.798 108.738" stroke="#263238" stroke-linecap="round" stroke-linejoin="round"/>
<path d="M195.225 128.448C195.225 128.448 184.232 132.363 181.674 138.084C179.116 143.804 178.065 148.473 179.72 152.836C181.376 157.198 189.803 173.903 192.212 177.066C194.621 180.228 197.783 183.39 200.043 186.246C201.619 188.34 203.028 190.554 204.257 192.869C204.785 194.954 205.54 196.975 206.508 198.896C207.717 200.849 209.066 202.207 209.373 203.276C209.679 204.344 209.82 209.145 211.326 210.047C212.833 210.949 213.289 210.047 213.289 208.996C213.289 207.945 212.684 201.918 212.684 201.918C212.684 201.918 215.189 206.359 215.846 207.787C217.414 211.203 218.553 211.852 219.307 211.291C220.06 210.73 219.604 208.882 219.158 206.771C218.711 204.66 217.651 203.162 217.651 201.953C217.651 200.744 217.502 199.097 217.502 199.097C217.502 199.097 221.006 209.408 221.716 210.082C222.425 210.757 222.592 210.958 223.818 210.38C224.344 210.135 223.976 208.365 223.669 207.524C223.1 205.939 221.593 200.087 221.593 200.087C221.593 200.087 225.474 206.622 226.078 207.226C226.223 207.413 226.42 207.552 226.645 207.626C226.87 207.699 227.111 207.704 227.338 207.639C227.565 207.574 227.768 207.442 227.92 207.261C228.071 207.08 228.165 206.857 228.189 206.622C228.487 205.264 227.129 203.757 226.534 202.408C225.938 201.059 224.125 196.837 224.125 196.837C224.417 197.662 224.941 198.385 225.634 198.92C226.327 199.454 227.159 199.778 228.032 199.851C228.908 199.956 230.747 199.851 231.194 198.975C231.325 198.576 231.308 198.144 231.148 197.756C230.987 197.369 230.693 197.052 230.318 196.863C229.871 196.714 226.604 196.679 225.605 195.041C224.606 193.403 223.249 191.599 222.04 190.994C220.831 190.39 213.91 187.078 213.91 187.078C213.91 187.078 212.106 175.796 210.45 171.573C208.795 167.351 207.288 166.606 206.386 165.555C205.483 164.504 205.186 159.239 203.074 155.621C201.822 153.484 200.814 151.213 200.07 148.85C200.851 146.998 201.152 144.98 200.946 142.981" fill="#F5AF19"/>
<path d="M195.225 128.448C195.225 128.448 184.232 132.363 181.674 138.084C179.116 143.804 178.065 148.473 179.72 152.836C181.376 157.198 189.803 173.903 192.212 177.066C194.621 180.228 197.783 183.39 200.043 186.246C201.619 188.34 203.028 190.554 204.257 192.869C204.785 194.954 205.54 196.975 206.508 198.896C207.717 200.849 209.066 202.207 209.373 203.276C209.679 204.344 209.82 209.145 211.326 210.047C212.833 210.949 213.289 210.047 213.289 208.996C213.289 207.945 212.684 201.918 212.684 201.918C212.684 201.918 215.189 206.359 215.846 207.787C217.414 211.203 218.553 211.852 219.307 211.291C220.06 210.73 219.604 208.882 219.158 206.771C218.711 204.66 217.651 203.162 217.651 201.953C217.651 200.744 217.502 199.097 217.502 199.097C217.502 199.097 221.006 209.408 221.716 210.082C222.425 210.757 222.592 210.958 223.818 210.38C224.344 210.135 223.976 208.365 223.669 207.524C223.1 205.939 221.593 200.087 221.593 200.087C221.593 200.087 225.474 206.622 226.078 207.226C226.223 207.413 226.42 207.552 226.645 207.626C226.87 207.699 227.111 207.704 227.338 207.639C227.565 207.574 227.768 207.442 227.92 207.261C228.071 207.08 228.165 206.857 228.189 206.622C228.487 205.264 227.129 203.757 226.534 202.408C225.938 201.059 224.125 196.837 224.125 196.837C224.417 197.662 224.941 198.385 225.634 198.92C226.327 199.454 227.159 199.778 228.032 199.851C228.908 199.956 230.747 199.851 231.194 198.975C231.325 198.576 231.308 198.144 231.148 197.756C230.987 197.369 230.693 197.052 230.318 196.863C229.871 196.714 226.604 196.679 225.605 195.041C224.606 193.403 223.249 191.599 222.04 190.994C220.831 190.39 213.91 187.078 213.91 187.078C213.91 187.078 212.106 175.796 210.45 171.573C208.795 167.351 207.288 166.606 206.386 165.555C205.483 164.504 205.186 159.239 203.074 155.621C201.822 153.484 200.814 151.213 200.07 148.85C200.851 146.998 201.152 144.98 200.946 142.981" stroke="#263238" stroke-linecap="round" stroke-linejoin="round"/>
<path d="M189.514 135.535C189.514 135.535 197.293 137.19 199.15 141.43" stroke="#263238" stroke-linecap="round" stroke-linejoin="round"/>
<path d="M198.239 135.78C198.239 135.78 202.487 141.676 202.724 144.54" stroke="#263238" stroke-linecap="round" stroke-linejoin="round"/>
<path d="M223.669 207.472C223.1 205.886 221.593 200.035 221.593 200.035C221.593 200.035 225.474 206.569 226.078 207.174C226.223 207.361 226.42 207.5 226.645 207.573C226.87 207.647 227.111 207.651 227.338 207.586C227.565 207.521 227.768 207.39 227.92 207.208C228.071 207.027 228.165 206.805 228.189 206.569C228.487 205.212 227.129 203.705 226.534 202.356C226.069 201.313 224.896 198.58 224.379 197.371C224.737 198.048 225.259 198.624 225.897 199.048C226.535 199.472 227.269 199.73 228.032 199.798C228.908 199.903 230.747 199.798 231.194 198.922C231.325 198.523 231.308 198.091 231.148 197.704C230.987 197.316 230.692 197 230.318 196.811C229.871 196.662 226.604 196.627 225.605 194.989C224.606 193.351 223.249 191.546 222.04 190.942C220.831 190.337 213.91 187.026 213.91 187.026C213.91 187.026 212.106 175.743 210.45 171.521C208.795 167.298 207.288 166.554 206.386 165.503C205.659 164.627 205.317 161.017 204.09 157.75C201.434 157.208 198.678 157.446 196.154 158.433C192.052 160.178 188.674 163.28 186.588 167.22C188.26 170.608 190.129 173.896 192.186 177.066C194.595 180.228 197.757 183.391 200.017 186.246C201.593 188.34 203.002 190.554 204.231 192.869C204.759 194.954 205.514 196.975 206.482 198.896C207.691 200.849 209.04 202.207 209.346 203.276C209.653 204.344 209.793 209.145 211.3 210.047C212.807 210.949 213.262 210.047 213.262 208.996C213.262 207.945 212.658 201.918 212.658 201.918C212.658 201.918 215.163 206.359 215.82 207.787C217.388 211.204 218.527 211.852 219.28 211.291C220.034 210.73 219.578 208.882 219.131 206.771C218.685 204.66 217.625 203.162 217.625 201.953C217.625 200.744 217.476 199.097 217.476 199.097C217.476 199.097 220.98 209.408 221.689 210.082C222.399 210.757 222.565 210.958 223.792 210.38C224.344 210.082 223.976 208.313 223.669 207.472Z" fill="#949494" stroke="#263238" stroke-linecap="round" stroke-linejoin="round"/>
<path d="M183.005 163.006C183.005 163.006 184.687 168.262 185.633 170.207C186.579 172.151 187.56 172.835 188.515 172.607L189.479 172.37C189.479 172.37 187.674 169.611 188.033 168.052C188.393 166.492 193.438 163.243 198.002 162.042C202.566 160.842 205.01 162.524 205.448 163.129C205.886 163.733 205.694 166.633 206.324 165.476C206.955 164.32 207.463 164.083 206.981 162.647C206.5 161.21 206.105 159.143 205.545 157.601C204.984 156.059 202.777 154.483 197.617 154.237C192.457 153.992 188.366 157.119 185.73 159.038C183.093 160.956 183.005 163.006 183.005 163.006Z" fill="white" stroke="#263238" stroke-linecap="round" stroke-linejoin="round"/>
<path d="M350.181 175.542L356.698 200.008C356.698 200.008 361.236 219.473 363.768 227.628C366.299 235.784 366.291 245.367 365.388 246.629C364.317 248.433 363.811 250.517 363.934 252.612C364.211 255.08 364.211 257.572 363.934 260.04C363.575 262.397 366.115 261.311 366.659 259.313C367.202 257.316 367.535 253.181 367.92 254.784C368.305 256.388 368.288 261.311 368.288 262.756C368.288 264.201 366.115 267.469 365.932 268.739C365.748 270.009 367.92 269.282 368.831 267.863C370.262 265.693 371.473 263.387 372.449 260.978C373.325 258.446 373.903 252.647 373.903 250.65C373.903 248.652 373.544 241.417 373.544 241.417C373.544 241.417 375.217 217.546 371.739 200.762C370.993 197.082 369.838 193.498 368.297 190.074L364.495 170.688L350.181 175.542Z" fill="#B5B5B5" stroke="#263238" stroke-linecap="round" stroke-linejoin="round"/>
<path d="M271.954 168.516C271.954 168.516 261.267 174.858 260.724 175.218C260.181 175.577 233.401 186.781 228.312 188.953C223.222 191.126 217.625 193.333 216.53 193.666C215.435 193.999 207.84 203.302 206.386 205.44C204.931 207.577 209.469 207.437 211.826 205.256C214.182 203.074 222.154 199.64 222.154 199.64C222.154 199.64 218.536 204.362 218.168 204.712C216.924 205.904 217.178 210.205 221.155 205.545C222.723 203.636 224.579 201.984 226.656 200.648C227.702 200.055 228.57 199.193 229.17 198.151L230.844 195.295C230.844 195.295 253.015 191.625 256.458 190.355C259.9 189.085 270.675 186.632 273.978 184.459C277.28 182.287 284.096 178.704 284.096 178.704L271.954 168.516Z" fill="#B5B5B5" stroke="#263238" stroke-linecap="round" stroke-linejoin="round"/>
<path d="M210.731 199.92C210.731 199.92 216.661 194.953 217.414 194.752" stroke="#263238" stroke-linecap="round" stroke-linejoin="round"/>
<path d="M206.403 205.439L213.656 199.798L217.765 197.336" stroke="#263238" stroke-linecap="round" stroke-linejoin="round"/>
<path d="M296.789 104.402C296.789 104.402 294.485 110.341 294.678 113.398C294.87 116.455 295.825 118.768 294.485 121.641C293.145 124.515 290.105 126.626 291.033 127.773C291.962 128.921 295.063 130.068 295.063 130.068C295.063 130.068 297.358 139.074 299.277 140.221C301.195 141.369 305.601 140.037 306.942 139.652C308.282 139.266 308.142 140.528 308.334 144.032C308.527 147.536 308.869 150.032 306.381 150.803C303.893 151.574 290.271 154.176 286.452 157.47C282.633 160.763 270.553 168.77 270.553 168.77L286.268 185.414L296.211 178.704C296.211 178.704 299.469 186.746 300.591 190.197C301.712 193.648 303.464 200.157 303.464 200.157C303.464 200.157 301.545 204.949 303.271 206.096C304.997 207.244 318.408 210.476 330.287 209.355C342.166 208.234 350.216 204.563 350.785 203.03C351.355 201.497 350.785 199.588 350.785 198.431C350.785 197.275 350.216 188.086 350.409 186.938C350.943 185.116 351.58 183.326 352.318 181.577L370.46 175.769C370.46 175.769 359.072 150.234 354.088 148.57C351.644 147.755 336.034 148.044 333.94 147.694C331.846 147.343 330.681 145.398 329.718 141.185C328.754 136.971 327.825 131.4 327.825 131.4C327.825 131.4 328.973 113.775 320.73 104.962C312.487 96.1497 303.49 99.6011 300.582 101.327C299.137 102.107 297.851 103.15 296.789 104.402Z" fill="#B5B5B5" stroke="#263238" stroke-linecap="round" stroke-linejoin="round"/>
<path d="M306.942 139.652L313.371 137.015L308.694 142.14L306.942 139.652Z" fill="#263238" stroke="#263238" stroke-linecap="round" stroke-linejoin="round"/>
<path d="M297.034 131.111C297.997 131.211 298.969 131.035 299.835 130.602C300.701 130.169 301.425 129.497 301.922 128.667" stroke="#263238" stroke-linecap="round" stroke-linejoin="round"/>
<path d="M300.179 120.941C300.179 121.817 299.794 122.509 299.303 122.509C298.812 122.509 298.427 121.808 298.427 120.941C298.427 120.073 298.821 119.364 299.303 119.364C299.785 119.364 300.179 120.065 300.179 120.941Z" fill="#263238"/>
<path d="M297.227 117.48C297.227 117.48 299.478 114.852 301.265 117.112" stroke="#263238" stroke-linecap="round" stroke-linejoin="round"/>
<path d="M314.484 86.6274C315.36 86.6274 298.26 86.8377 295.484 89.1853C292.707 91.533 295.484 93.8807 295.484 93.8807C295.484 93.8807 284.595 98.1556 286.084 99.6535C287.573 101.152 294.415 100.53 294.415 100.53C294.415 100.53 281.818 108.86 287.407 109.071C290.696 109.199 293.907 108.05 296.368 105.864C296.368 105.864 300.643 116.543 303.201 114.405C304.673 113.248 305.785 111.695 306.407 109.929C306.407 109.929 307.283 127.011 310.253 125.303C311.791 124.48 313.223 123.474 314.519 122.307C314.519 122.307 310.682 137.47 313.45 137.041C316.218 136.612 319.433 132.556 319.433 132.556C319.433 132.556 317.086 148.999 323.279 149.428C329.472 149.857 333.309 141.544 333.309 141.544C333.309 141.544 334.185 150.304 336.305 149.235C338.425 148.166 340.142 144.75 340.142 144.75C340.142 144.75 343.138 147.956 344.417 144.75C345.281 142.126 345.785 139.397 345.915 136.638C345.915 136.638 348.902 138.127 349.971 135.99C351.04 133.853 350.61 125.531 350.61 125.531C350.61 125.531 352.748 128.308 353.808 124.655C354.868 121.002 352.529 113.337 352.529 113.337C352.529 113.337 355.516 114.616 354.876 107.783C354.237 100.95 353.475 95.1246 345.416 90.1665C334.904 83.7016 333.528 88.7736 333.528 88.7736C333.528 88.7736 331.181 81.7656 327.335 82.5803C323.489 83.395 325.627 86.2157 325.627 86.2157C325.627 86.2157 317.743 81.0911 315.991 82.7993C315.49 83.2996 315.098 83.8978 314.839 84.5564C314.579 85.215 314.459 85.92 314.484 86.6274Z" fill="#263238" stroke="#263238" stroke-linecap="round" stroke-linejoin="round"/>
<path d="M281.941 362.375C281.941 362.375 280.46 366.229 278.375 370.39C276.29 374.551 276.895 375.436 271.551 379.886C266.208 384.336 262.047 386.421 261.46 389.977C260.873 393.534 265.612 394.734 272.147 392.947C278.682 391.16 282.536 387.305 284.315 386.123C286.093 384.94 287.284 387.875 288.178 380.481C289.071 373.088 290.552 366.527 290.552 366.527L281.941 362.375Z" fill="white" stroke="#263238" stroke-linecap="round" stroke-linejoin="round"/>
<path d="M272.147 392.947C278.673 391.195 282.536 387.305 284.315 386.123C286.093 384.94 287.284 387.875 288.178 380.481C288.178 380.481 284.998 382.584 283.333 383.416C281.669 384.248 274.188 389.82 269.458 390.906C268.311 391.18 267.131 391.286 265.954 391.221C264.389 391.153 262.861 390.727 261.486 389.977C260.864 393.543 265.612 394.734 272.147 392.947Z" fill="white" stroke="#263238" stroke-linecap="round" stroke-linejoin="round"/>
<path d="M369.383 362.375C369.383 362.375 370.863 366.229 372.939 370.39C375.016 374.551 374.429 375.436 379.772 379.886C385.116 384.336 389.268 386.421 389.864 389.977C390.459 393.534 385.712 394.734 379.177 392.947C372.642 391.16 368.796 387.305 367.044 386.123C365.292 384.94 364.074 387.875 363.181 380.481C362.287 373.088 360.807 366.527 360.807 366.527L369.383 362.375Z" fill="white" stroke="#263238" stroke-linecap="round" stroke-linejoin="round"/>
<path d="M379.177 392.947C372.65 391.195 368.787 387.305 367.009 386.123C365.231 384.94 364.039 387.875 363.146 380.481C363.146 380.481 366.326 382.584 367.99 383.416C369.654 384.248 377.144 389.802 381.866 390.906C383.013 391.18 384.193 391.286 385.37 391.221C386.935 391.153 388.463 390.727 389.838 389.977C390.459 393.543 385.712 394.734 379.177 392.947Z" fill="white" stroke="#263238" stroke-linecap="round" stroke-linejoin="round"/>
<path d="M371.161 318.137C371.161 311.83 368.192 292.908 368.192 292.908L364.688 256.02C364.688 256.02 363.417 241.706 360.877 233.734C358.337 225.763 351.644 213.087 351.644 213.087L350.768 203.065L303.254 206.131L303.622 212.544C303.622 212.544 299.093 226.49 297.822 233.568C296.552 240.646 293.653 250.212 293.653 250.212L292.207 256.002L289.115 293.267C289.115 293.267 282.431 311.812 282.107 325.916C281.783 340.019 278.402 367.088 278.402 367.088C278.402 367.088 284.332 369.313 287.302 368.936C288.99 368.753 290.628 368.251 292.128 367.456L328.85 256.572L332.46 257.123L345.188 309.605L358.547 366.746C358.547 366.746 362.62 369.716 364.109 369.374C365.599 369.032 370.049 369.374 372.274 364.915C374.499 360.456 371.161 324.453 371.161 318.137Z" fill="#263238" stroke="#263238" stroke-linecap="round" stroke-linejoin="round"/>
<path d="M328.009 213.236L328.631 216.933L329.551 239.148C329.551 239.148 332.635 235.145 332.95 233.603C333.265 232.061 333.257 225.587 333.257 225.587" stroke="#B5B5B5" stroke-linecap="round" stroke-linejoin="round"/>
<path d="M340.965 210.152L341.272 213.849C339.36 214.755 337.254 215.18 335.14 215.084" stroke="#B5B5B5" stroke-linecap="round" stroke-linejoin="round"/>
<path d="M311.059 211.387L311.365 214.777C313.817 215.139 316.29 215.344 318.768 215.391" stroke="#B5B5B5" stroke-linecap="round" stroke-linejoin="round"/>
<path d="M332.092 212.719C332.092 212.948 332.024 213.172 331.896 213.362C331.769 213.553 331.588 213.701 331.376 213.788C331.164 213.875 330.931 213.898 330.706 213.852C330.482 213.807 330.276 213.696 330.115 213.533C329.953 213.371 329.844 213.164 329.8 212.939C329.756 212.714 329.781 212.481 329.869 212.27C329.958 212.059 330.108 211.879 330.299 211.753C330.491 211.627 330.715 211.561 330.944 211.563C331.095 211.563 331.245 211.593 331.385 211.651C331.525 211.709 331.652 211.794 331.759 211.902C331.865 212.009 331.95 212.137 332.007 212.277C332.064 212.417 332.093 212.567 332.092 212.719Z" stroke="#B5B5B5" stroke-linecap="round" stroke-linejoin="round"/>
<path d="M342.42 216.608C342.42 216.608 348.639 221.996 354.438 221.996" stroke="#B5B5B5" stroke-linecap="round" stroke-linejoin="round"/>
<path d="M310.927 217.248C310.927 217.248 306.364 224.711 300.766 226.778" stroke="#B5B5B5" stroke-linecap="round" stroke-linejoin="round"/>
<path d="M352.345 181.612L370.487 175.804C370.487 175.804 361.324 151.653 354.114 148.604C352.099 147.728 342.017 148 336.086 147.825C333.379 151.644 328.623 156.883 322.324 158.004C312.18 159.817 306.381 150.759 306.381 150.759C303.893 151.521 290.271 154.211 286.434 157.469C282.598 160.728 270.535 168.77 270.535 168.77L286.25 185.414L296.211 178.704C296.211 178.704 299.469 186.745 300.591 190.197C301.712 193.648 303.464 200.157 303.464 200.157C303.464 200.157 301.545 204.949 303.271 206.096C304.997 207.244 318.408 210.476 330.287 209.355C342.166 208.234 350.216 204.563 350.785 203.03C351.355 201.497 350.785 199.588 350.785 198.431C350.785 197.275 350.216 188.086 350.409 186.938C350.953 185.127 351.599 183.349 352.345 181.612Z" fill="#00A8A8" stroke="#263238" stroke-linecap="round" stroke-linejoin="round"/>
<path d="M296.211 178.739L297.472 172.563" stroke="#263238" stroke-linecap="round" stroke-linejoin="round"/>
<path d="M352.345 181.612C351.428 177.162 350.234 172.774 348.771 168.472" stroke="#263238" stroke-linecap="round" stroke-linejoin="round"/>
<path d="M342.709 182.304C342.709 182.304 342.49 187.28 333.616 194.638" stroke="#263238" stroke-linecap="round" stroke-linejoin="round"/>
<path d="M336.647 187.928C336.647 187.928 336.218 191.607 328.211 196.802" stroke="#263238" stroke-linecap="round" stroke-linejoin="round"/>
<path d="M318.864 209.574C318.864 209.574 314.975 208.698 313.24 205.895" stroke="#263238" stroke-linecap="round" stroke-linejoin="round"/>
<path d="M339.012 207.191C339.012 207.191 343.129 205.247 343.988 202.645" stroke="#263238" stroke-linecap="round" stroke-linejoin="round"/>
<path d="M303.753 153.3C303.753 153.3 311.111 160.658 316.735 160.877" stroke="#263238" stroke-linecap="round" stroke-linejoin="round"/>
<path d="M338.6 149.401C338.6 149.401 336.647 153.948 333.616 156.331" stroke="#263238" stroke-linecap="round" stroke-linejoin="round"/>
<path d="M153.826 260.995C153.826 260.995 149.656 263.413 148.85 263.685C148.044 263.956 147.51 263.413 148.175 262.607C148.841 261.801 149.393 261.136 149.393 261.136C149.393 261.136 147.51 262.073 147.369 260.995C147.229 259.918 150.059 259.112 150.059 259.112C150.059 259.112 146.204 257.693 148.175 257.36C149.927 257.071 149.682 257.754 151.163 256.431C151.872 255.801 151.364 252.428 151.504 252.051C151.644 251.675 153.957 254.566 153.957 254.566C153.957 254.566 154.36 258.981 153.826 260.995Z" fill="white" stroke="#263238" stroke-linecap="round" stroke-linejoin="round"/>
<path d="M151.609 224.501L154.702 238.877C154.702 238.877 156.988 246.139 156.988 248.153C156.988 250.168 155.648 261.293 155.376 262.275C155.105 263.256 154.167 266.304 153.361 266.304C152.555 266.304 152.152 265.761 152.415 264.018C152.678 262.275 153.09 259.182 153.09 259.182L151.11 251.903C151.11 251.903 150.138 251.517 149.595 253.129C149.051 254.741 148.254 258.639 147.448 259.042C146.642 259.445 145.434 258.779 146.099 256.493C146.765 254.207 147.177 250.308 147.58 248.556C147.983 246.804 149.595 240.357 149.595 240.357L142.341 228.4L151.609 224.501Z" fill="white" stroke="#263238" stroke-linecap="round" stroke-linejoin="round"/>
<path d="M144.374 193.325L150.506 219.806L140.493 222.504C140.493 222.504 137.865 200.946 138.163 197.687C138.461 194.428 141.859 187.613 144.374 193.325Z" fill="#CC4268" stroke="#263238" stroke-linecap="round" stroke-linejoin="round"/>
<path d="M139.109 219.123C139.109 219.123 149.463 214.953 150.497 215.619C151.531 216.285 153.186 223.818 153.186 225.159C153.186 226.499 141.894 229.731 140.922 229.328C139.95 228.925 139.109 219.123 139.109 219.123Z" fill="white" stroke="#263238" stroke-linecap="round" stroke-linejoin="round"/>
<path d="M144.54 309.544C144.54 309.544 145.819 331.382 144.233 348.806C143.598 357.439 144.614 366.115 147.229 374.368C147.229 374.368 160.308 383.688 163.199 384.188C166.09 384.687 170.794 385.756 168.411 389.093C166.028 392.431 165.546 391.888 162.691 392.361C159.835 392.834 146.502 391.414 141.737 390.933C136.971 390.451 134.116 391.414 130.787 389.978C127.458 388.541 128.877 382.838 131.26 378.546C133.555 374.42 131.777 369.69 130.997 365.17C129.601 356.785 127.786 348.476 125.557 340.274C124.103 335.123 122.517 327.843 122.736 322.193C123.017 314.87 121.177 304.139 121.177 304.139C121.177 304.139 144.076 303.832 144.54 309.544Z" fill="white" stroke="#263238" stroke-linecap="round" stroke-linejoin="round"/>
<path d="M163.199 384.188C162.312 383.939 161.461 383.577 160.667 383.11L157.978 385.44C157.978 385.44 145.714 386.667 136.822 382.374C134.282 381.148 132.285 380.281 130.69 379.65C128.676 383.767 127.712 388.699 130.778 390.004C134.107 391.441 136.963 390.486 141.728 390.959C146.493 391.432 159.826 392.869 162.682 392.387C165.538 391.905 166.02 392.448 168.402 389.119C170.785 385.791 166.055 384.661 163.199 384.188Z" fill="#263238" stroke="#263238" stroke-linecap="round" stroke-linejoin="round"/>
<path d="M168.464 389.005C166.273 389.681 164.032 390.179 161.762 390.495C157.111 391.099 147.588 389.277 140.738 388.673C136.712 388.282 132.732 387.51 128.851 386.369C128.851 388.042 129.42 389.382 130.813 389.978C134.142 391.414 136.998 390.46 141.763 390.933C146.529 391.406 159.861 392.842 162.717 392.36C165.573 391.879 166.055 392.422 168.437 389.093L168.464 389.005Z" fill="white" stroke="#263238" stroke-linecap="round" stroke-linejoin="round"/>
<path d="M90.7799 313.783C90.7799 313.783 83.7719 324.646 82.5367 332.661C77.8063 362.787 73.1548 369.506 70.7721 375.217C68.3893 380.929 72.6817 383.793 75.0645 384.266C77.4472 384.739 81.7308 388.55 87.4423 389.522C93.1539 390.495 99.7501 391.458 103.088 390.03C106.425 388.602 106.416 386.693 103.561 383.837C100.705 380.981 92.6808 374.28 91.2967 371.906C90.897 371.126 90.6418 370.28 90.5434 369.409C89.9477 365.564 92.2954 356.138 94.17 352.704L112.04 314.624L90.7799 313.783Z" fill="white" stroke="#263238" stroke-linecap="round" stroke-linejoin="round"/>
<path d="M103.561 383.82C102.422 382.69 102.939 383.504 100.933 381.665C100.486 382.374 99.5311 383.11 97.5952 383.679C92.383 385.212 84.8406 382.208 77.6574 375.594C75.6777 373.781 74.6878 370.925 73.4351 368.901C72.4102 371.529 71.5342 373.457 70.8071 375.217C68.4331 380.929 70.5443 382.024 75.0995 384.266C77.272 385.344 81.7659 388.55 87.4774 389.522C93.1889 390.495 99.7852 391.458 103.123 390.03C106.46 388.603 106.416 386.675 103.561 383.82Z" fill="#263238" stroke="#263238" stroke-linecap="round" stroke-linejoin="round"/>
<path d="M79.7773 384.827C76.2211 383.102 72.8857 380.955 69.8435 378.432C69.4756 381.489 71.5342 382.541 75.0995 384.284C77.272 385.361 81.7658 388.567 87.4774 389.54C93.1889 390.512 99.7852 391.476 103.123 390.048C104.875 389.295 105.698 388.401 105.672 387.315C103.875 388.175 101.993 388.845 100.057 389.312C97.9981 389.487 86.4612 388.068 79.7773 384.827Z" fill="white" stroke="#263238" stroke-linecap="round" stroke-linejoin="round"/>
<path d="M130.883 135.229L136.568 141.036C136.568 141.036 144.26 146.573 143.927 147.571C143.594 148.57 135.543 147.16 135.543 147.16L130.883 135.229Z" fill="#CC4268" stroke="#263238" stroke-linecap="round" stroke-linejoin="round"/>
<path d="M145.67 177.618L149.411 204.844C149.411 204.844 145.258 207.122 143.182 207.122H141.097L145.67 177.618Z" fill="#CC4268" stroke="#263238" stroke-linecap="round" stroke-linejoin="round"/>
<path d="M135.955 129.017C135.955 129.017 131.26 137.593 131.26 139.836C131.26 142.079 135.543 147.186 135.543 147.186C135.543 147.186 145.758 162.297 146.774 173.115C147.79 183.934 143.103 197.827 143.103 204.362C143.103 210.897 145.346 248.46 145.346 248.46C145.346 248.46 150.243 286.443 149.84 291.953C149.437 297.463 150.856 320.336 150.856 320.336C141.053 323.719 130.776 325.529 120.406 325.697C103.456 325.898 99.0493 324.4 91.6997 323.586C89.6273 323.409 87.6125 322.813 85.7781 321.832C83.9438 320.852 82.3282 319.508 81.03 317.883C81.03 317.883 83.658 258.674 85.3136 245.806C86.9693 232.937 90.2192 217.02 95.5278 208.033C100.836 199.045 105.532 193.535 105.935 192.519C106.338 191.502 103.692 170.058 104.104 159.231C104.516 148.403 112.864 141.474 117.577 136.98C122.29 132.486 126.144 122.482 126.144 122.482L135.955 129.017Z" fill="#949494" stroke="#263238" stroke-linecap="round" stroke-linejoin="round"/>
<path d="M118.567 307.476C117.955 308.927 117.268 310.345 116.508 311.725" stroke="#263238" stroke-linecap="round" stroke-linejoin="round"/>
<path d="M132.889 256.256C132.889 256.256 126.985 284.648 120.625 302.308" stroke="#263238" stroke-linecap="round" stroke-linejoin="round"/>
<path d="M133.222 267.294C133.222 267.294 129.543 286.689 126.538 294.371" stroke="#263238" stroke-linecap="round" stroke-linejoin="round"/>
<path d="M125.688 246.559C125.688 248.495 125.689 250.308 125.531 251.911" stroke="#263238" stroke-linecap="round" stroke-linejoin="round"/>
<path d="M122.526 217.476C123.953 225.78 124.959 234.151 125.54 242.556" stroke="#263238" stroke-linecap="round" stroke-linejoin="round"/>
<path d="M124.865 212.465C124.865 212.465 128.211 224.502 128.211 231.851" stroke="#263238" stroke-linecap="round" stroke-linejoin="round"/>
<path d="M131.26 139.836C131.26 139.836 136.568 146.573 137.795 150.655C139.021 154.737 141.912 162.787 141.912 177.688C141.912 192.589 139.004 211.3 139.004 211.3C139.004 211.3 116.955 209.242 109.815 205.773C105.387 203.596 101.232 200.902 97.4375 197.748C97.4375 197.748 101.441 166.992 104.095 155.762C106.749 144.531 109.404 140.651 114.712 137.594C120.021 134.536 131.26 139.836 131.26 139.836Z" fill="#CC4268" stroke="#263238" stroke-linecap="round" stroke-linejoin="round"/>
<path d="M107.652 177.031C107.652 177.031 110.595 177.031 117.892 174.771" stroke="#263238" stroke-linecap="round" stroke-linejoin="round"/>
<path d="M119.276 178.59C119.276 178.59 111.121 183.794 103.832 185.879" stroke="#263238" stroke-linecap="round" stroke-linejoin="round"/>
<path d="M148.158 97.0347C148.158 97.0347 149.778 102.378 149.778 105.795C149.778 109.211 148.158 110.175 148.316 112.268C148.473 114.362 151.066 117.437 151.233 118.9C151.399 120.363 148.482 122.132 148 122.29C147.518 122.447 144.277 129.245 143.305 131.348C142.332 133.45 132.626 129.972 130.848 128.834C129.07 127.695 126.766 123.937 126.766 123.937C126.766 123.937 125.837 112.75 128.106 104.831C130.375 96.9121 138.776 92.0503 138.776 92.0503L148.158 97.0347Z" fill="white" stroke="#263238" stroke-linecap="round" stroke-linejoin="round"/>
<path d="M145.731 111.594C145.731 111.594 145.25 108.475 141.351 110.096" stroke="#263238" stroke-linecap="round" stroke-linejoin="round"/>
<path d="M145.416 111.909C145.416 112.715 144.934 113.363 144.33 113.363C143.725 113.363 143.244 112.715 143.244 111.909C143.244 111.103 143.725 110.464 144.33 110.464C144.934 110.464 145.416 111.112 145.416 111.909Z" fill="#263238"/>
<path d="M141.702 107.363C141.702 107.363 145.416 105.4 147.483 108.353" stroke="#263238" stroke-linecap="round" stroke-linejoin="round"/>
<path d="M140.283 120.468C140.927 121.277 141.765 121.911 142.718 122.312C143.672 122.713 144.711 122.868 145.74 122.763" stroke="#263238" stroke-linecap="round" stroke-linejoin="round"/>
<path d="M181.858 188.883L197.923 193.36C197.923 193.36 209.53 189.444 210.643 189.023C211.755 188.603 217.59 188.848 220.104 189.129C222.618 189.409 223.608 190.986 224.764 191.546C224.912 191.6 225.047 191.682 225.162 191.789C225.277 191.895 225.37 192.023 225.436 192.166C225.501 192.309 225.537 192.463 225.542 192.62C225.547 192.777 225.521 192.933 225.465 193.079C225.465 193.079 226.577 193.5 225.465 194.621C224.352 195.742 224.37 195.62 224.37 195.62C223.545 196.443 222.503 197.014 221.365 197.267C219.175 197.608 218.422 197.03 217.581 197.17C216.74 197.31 213.201 199.527 210.406 200.079C208.79 200.48 207.109 200.546 205.466 200.271C204.14 200.099 202.838 199.776 201.585 199.308C201.585 199.308 179.615 198.257 179.063 198.257C178.511 198.257 181.858 188.883 181.858 188.883Z" fill="white" stroke="#263238" stroke-linecap="round" stroke-linejoin="round"/>
<path d="M209.828 190.583C209.828 190.583 216.521 190.197 217.485 190.092C218.448 189.987 223.695 190.486 223.695 190.486" stroke="#263238" stroke-linecap="round" stroke-linejoin="round"/>
<path d="M210.993 192.808C210.993 192.808 216.714 192.326 218.553 192.326C220.393 192.326 225.465 193.08 225.465 193.08" stroke="#263238" stroke-linecap="round" stroke-linejoin="round"/>
<path d="M211.668 195.62C211.668 195.62 217.581 194.56 218.168 194.56C218.755 194.56 224.852 195.33 224.852 195.33" stroke="#263238" stroke-linecap="round" stroke-linejoin="round"/>
<path d="M110.639 167.605C110.639 167.605 128.903 188.927 135.228 192.405C141.553 195.883 170.873 198.029 172.3 198.029C173.728 198.029 176.794 185.169 176.794 185.169C176.794 185.169 158.022 178.065 154.956 176.015C151.89 173.965 144.925 171.337 144.925 171.337C144.925 171.337 133.704 153.721 131.26 150.655C128.816 147.589 118.602 141.895 113.083 145.758" fill="#CC4268"/>
<path d="M110.639 167.605C110.639 167.605 128.903 188.927 135.228 192.405C141.553 195.883 170.873 198.029 172.3 198.029C173.728 198.029 176.794 185.169 176.794 185.169C176.794 185.169 158.022 178.065 154.956 176.015C151.89 173.965 144.925 171.337 144.925 171.337C144.925 171.337 133.704 153.721 131.26 150.655C128.816 147.589 118.602 141.895 113.083 145.758" stroke="#263238" stroke-linecap="round" stroke-linejoin="round"/>
<path d="M123.446 166.265C123.446 166.265 128.299 172.169 141.15 171.994" stroke="#263238" stroke-linecap="round" stroke-linejoin="round"/>
<path d="M142.078 96.7544C142.078 96.7544 139.45 100.258 140.852 101.038C141.699 101.48 142.633 101.728 143.588 101.764C144.542 101.8 145.493 101.624 146.371 101.248C148.202 100.425 149.875 97.9808 149.875 97.9808C149.875 97.9808 149.875 102.676 152.503 101.485C155.131 100.293 156.384 99.2422 154.132 92.9087C151.881 86.5752 143.717 82.2566 138.408 80.2155C133.099 78.1744 116.762 75.5201 109.202 83.7195C101.642 91.9188 99.5662 99.032 100.626 105.164C101.686 111.296 101.038 118.838 99.61 120.678C98.1821 122.518 85.9269 131.295 84.718 140.896C83.5091 150.497 89.4133 154.982 90.6397 157.838C91.8661 160.694 89.0104 161.92 88.0117 160.466C87.0131 159.012 84.5077 167.202 90.2631 169.865C96.0184 172.528 104.349 171.906 107.783 167.001C111.217 162.095 108.598 151.487 112.075 148.421C115.553 145.355 121.054 145.968 123.306 147.405C125.557 148.841 133.923 148.833 135.57 147.194C137.217 145.556 136.595 141.062 136.595 141.062C136.595 141.062 134.142 143.515 132.714 139.424C131.172 134.262 131.684 128.704 134.142 123.91C136.77 119.215 135.78 111.865 134.142 107.371C132.504 102.878 142.078 96.7544 142.078 96.7544Z" fill="#263238" stroke="#263238" stroke-linecap="round" stroke-linejoin="round"/>
<path d="M115.991 143.944C116.485 144.666 117.202 145.204 118.032 145.477" stroke="#B5B5B5" stroke-linecap="round" stroke-linejoin="round"/>
<path d="M125.364 115.229C125.595 117.321 125.38 119.437 124.734 121.44C122.193 129.324 115.334 130.629 114.721 137.593C114.6 138.632 114.6 139.682 114.721 140.721" stroke="#B5B5B5" stroke-linecap="round" stroke-linejoin="round"/>
<path d="M122.868 105.12C123.096 107.135 124.068 109.421 124.751 112.014" stroke="#B5B5B5" stroke-linecap="round" stroke-linejoin="round"/>
<path d="M101.616 164.198C99.7676 170.899 95.1424 170.435 93.5218 169.971" stroke="#B5B5B5" stroke-linecap="round" stroke-linejoin="round"/>
<path d="M110.674 102.317C110.031 103.6 109.627 104.989 109.482 106.417C109.246 112.189 114.563 120.284 112.986 125.364C111.41 130.445 102.588 131.146 98.6639 142.008C95.3351 151.206 101.117 155.928 101.853 161.228" stroke="#B5B5B5" stroke-linecap="round" stroke-linejoin="round"/>
<path d="M138.408 97.8667C138.408 97.8667 134.711 101.791 130.778 102.947C126.845 104.104 120.835 102.947 117.375 110.113" stroke="#B5B5B5" stroke-linecap="round" stroke-linejoin="round"/>
<path d="M140.011 87.3549L142.534 85.8481" stroke="#B5B5B5" stroke-linecap="round" stroke-linejoin="round"/>
<path d="M114.336 98.559C114.336 98.559 114.8 96.0098 121.037 92.3131C125.715 89.545 131.549 89.6326 135.657 88.9668" stroke="#B5B5B5" stroke-linecap="round" stroke-linejoin="round"/>
<path d="M174.447 183.435C174.447 183.435 168.577 196.014 169.138 198.257C169.699 200.499 177.101 202.164 178.923 200.885C180.745 199.606 183.531 189.278 183.671 187.885C183.811 186.492 179.335 184.95 178.362 184.381C177.39 183.811 175.568 182.208 174.447 183.435Z" fill="white" stroke="#263238" stroke-linecap="round" stroke-linejoin="round"/>
</svg>
