<svg width="484" height="488" viewBox="0 0 484 488" fill="none" xmlns="http://www.w3.org/2000/svg">
<path d="M449.633 127.43C448.1 124.808 446.491 122.235 444.806 119.717C422.365 86.1954 383.753 63.2672 345.768 52.9021C329.134 48.3627 311.955 45.9832 294.743 45.3947C181.861 41.5366 136.899 131.239 99.5907 154.388C62.2821 177.536 4.88356 217.083 8.71006 300.033C12.5366 382.983 71.8479 461.111 186.644 465.934C301.44 470.756 309.093 418.672 373.187 399.38C415.604 386.614 445.741 343.494 460.498 303.646C480.608 249.34 479.66 178.8 449.633 127.43Z" fill="#007CBF" fill-opacity="0.43"/>
<path opacity="0.7" d="M449.633 127.43C448.1 124.808 446.491 122.235 444.806 119.717C422.365 86.1954 383.753 63.2672 345.768 52.9021C329.134 48.3627 311.955 45.9832 294.743 45.3947C181.861 41.5366 136.899 131.239 99.5907 154.388C62.2821 177.536 4.88356 217.083 8.71006 300.033C12.5366 382.983 71.8479 461.111 186.644 465.934C301.44 470.756 309.093 418.672 373.187 399.38C415.604 386.614 445.741 343.494 460.498 303.646C480.608 249.34 479.66 178.8 449.633 127.43Z" fill="white"/>
<path opacity="0.2" d="M447.216 292.849H406.56V309.441H447.216V292.849Z" fill="black"/>
<path opacity="0.2" d="M314.963 158.89H274.307V175.482H314.963V158.89Z" fill="black"/>
<path opacity="0.2" d="M289.928 183.961H249.272V200.553H289.928V183.961Z" fill="black"/>
<path opacity="0.2" d="M317.469 73.8256H276.813V90.4176H317.469V73.8256Z" fill="black"/>
<path opacity="0.2" d="M284.592 275.044H243.936V291.636H284.592V275.044Z" fill="black"/>
<path opacity="0.2" d="M204.445 126.886H163.789V143.478H204.445V126.886Z" fill="black"/>
<path opacity="0.2" d="M248.972 126.886H208.316V143.478H248.972V126.886Z" fill="black"/>
<path opacity="0.2" d="M214.896 397.737H174.24V414.329H214.896V397.737Z" fill="black"/>
<path opacity="0.2" d="M193.6 418.233H152.944V434.825H193.6V418.233Z" fill="black"/>
<path opacity="0.1" d="M267.664 206.897H227.008V223.489H267.664V206.897Z" fill="black"/>
<path opacity="0.1" d="M207.521 85.6166H166.865V102.209H207.521V85.6166Z" fill="black"/>
<path opacity="0.1" d="M470.448 332.628H429.792V349.22H470.448V332.628Z" fill="black"/>
<path opacity="0.1" d="M232.32 358.004H191.664V374.596H232.32V358.004Z" fill="black"/>
<path opacity="0.1" d="M278.784 358.004H238.128V374.596H278.784V358.004Z" fill="black"/>
<path opacity="0.1" d="M282.656 334.58H242V351.172H282.656V334.58Z" fill="black"/>
<path opacity="0.1" d="M314.128 206.897H273.472V223.489H314.128V206.897Z" fill="black"/>
<path opacity="0.2" d="M334.928 416.564H294.272V433.156H334.928V416.564Z" fill="black"/>
<path opacity="0.1" d="M312.664 439.5H272.008V456.092H312.664V439.5Z" fill="black"/>
<path opacity="0.1" d="M359.128 439.5H318.472V456.092H359.128V439.5Z" fill="black"/>
<path opacity="0.2" d="M137.835 210.053H97.1794V226.645H137.835V210.053Z" fill="black"/>
<path opacity="0.1" d="M115.571 232.989H74.9155V249.581H115.571V232.989Z" fill="black"/>
<path opacity="0.1" d="M162.035 232.989H121.379V249.581H162.035V232.989Z" fill="black"/>
<path opacity="0.2" d="M121.968 333.604H81.312V350.196H121.968V333.604Z" fill="black"/>
<path opacity="0.1" d="M302.016 254.265H261.36V270.857H302.016V254.265Z" fill="black"/>
<path opacity="0.1" d="M241.032 417.257H200.376V433.849H241.032V417.257Z" fill="black"/>
<path opacity="0.1" d="M227.677 106.39H187.021V122.982H227.677V106.39Z" fill="black"/>
<path opacity="0.2" d="M98.736 278.665H58.08V295.257H98.736V278.665Z" fill="black"/>
<path opacity="0.1" d="M121.968 258.169H81.312V274.761H121.968V258.169Z" fill="black"/>
<path opacity="0.1" d="M225.544 158.412H184.888V175.004H225.544V158.412Z" fill="black"/>
<path opacity="0.1" d="M166.275 168.155H125.619V184.747H166.275V168.155Z" fill="black"/>
<path opacity="0.2" d="M366.872 292.849H326.216V309.441H366.872V292.849Z" fill="black"/>
<path opacity="0.2" d="M70.2139 384.62H29.5579V401.212H70.2139V384.62Z" fill="black"/>
<path opacity="0.1" d="M52.6515 151.493H11.9955V168.085H52.6515V151.493Z" fill="black"/>
<path opacity="0.1" d="M99.1154 151.493H58.4594V168.085H99.1154V151.493Z" fill="black"/>
<path opacity="0.1" d="M102.987 128.069H62.3315V144.661H102.987V128.069Z" fill="black"/>
<path opacity="0.1" d="M72.6 194.729H31.944V211.321H72.6V194.729Z" fill="black"/>
<path opacity="0.2" d="M125.39 401.7H84.7339V418.292H125.39V401.7Z" fill="black"/>
<g opacity="0.3">
<path d="M316.824 24.8832V258.961H462.96V24.8832H316.824ZM457.639 81.1154H393.225V33.4046H457.639V81.1154ZM393.225 144.7H457.639V195.818H393.225V144.7ZM393.225 138.467V87.3482H457.639V138.466L393.225 138.467ZM322.144 33.4046H386.558V81.1154H322.472V87.3482H386.558V138.466H322.472V144.699H386.558V195.817H322.472V202.05H386.558V250.439H322.144V33.4046ZM393.225 250.44V202.051H457.639V250.44H393.225Z" stroke="black" stroke-miterlimit="10" stroke-linecap="round" stroke-linejoin="round"/>
<path d="M377.326 47.6708L344.828 74.788" stroke="black" stroke-miterlimit="10" stroke-linecap="round" stroke-linejoin="round"/>
<path d="M441.762 100.776L409.265 127.893" stroke="black" stroke-miterlimit="10" stroke-linecap="round" stroke-linejoin="round"/>
<path d="M368.361 215.46L335.863 242.577" stroke="black" stroke-miterlimit="10" stroke-linecap="round" stroke-linejoin="round"/>
<path d="M360.284 55.5803L345.388 68.0087" stroke="black" stroke-miterlimit="10" stroke-linecap="round" stroke-linejoin="round"/>
<path d="M439.288 94.5608L424.393 106.99" stroke="black" stroke-miterlimit="10" stroke-linecap="round" stroke-linejoin="round"/>
<path d="M366.447 223.934L351.552 236.363" stroke="black" stroke-miterlimit="10" stroke-linecap="round" stroke-linejoin="round"/>
<path d="M361.964 164.05L347.07 176.478" stroke="black" stroke-miterlimit="10" stroke-linecap="round" stroke-linejoin="round"/>
<path d="M438.167 216.59L423.273 229.018" stroke="black" stroke-miterlimit="10" stroke-linecap="round" stroke-linejoin="round"/>
<path d="M472.02 258.806H308.408V279.299H472.02V258.806Z" stroke="black" stroke-miterlimit="10" stroke-linecap="round" stroke-linejoin="round"/>
</g>
<g opacity="0.3">
<path d="M76.3142 114.955L76.9183 109.057H38.1653L38.7694 114.955H76.3142Z" stroke="black" stroke-miterlimit="10" stroke-linecap="round" stroke-linejoin="round"/>
<path d="M74.7257 130.463H40.3579L36.0619 88.5203H79.0217L74.7257 130.463Z" stroke="black" stroke-miterlimit="10" stroke-linecap="round" stroke-linejoin="round"/>
<path d="M43.0808 88.2196C43.0808 88.2196 37.6213 87.433 32.5529 83.1083C27.4835 78.7837 18.5149 77.6037 15.396 79.9627C12.2762 82.3217 9.15729 85.4673 9.15729 85.4673C9.15729 85.4673 11.4969 76.818 17.7357 74.8523C23.9745 72.8867 27.8745 74.8523 31.3835 76.4247C34.8925 77.997 36.453 79.177 40.3521 81.536C44.2512 83.895 46.5908 85.8606 46.5908 85.8606C46.5908 85.8606 45.4215 80.7493 43.0818 78.3903C40.7422 76.0313 26.7042 65.8097 26.7042 65.8097C26.7042 65.8097 34.5034 67.7753 39.5718 70.1343C44.6413 72.4933 48.5404 76.818 48.9305 78.7837C49.3206 80.7493 50.88 84.2883 50.88 84.2883L52.4395 88.2196C52.4395 88.2196 52.0494 82.3226 51.6593 77.998C51.2692 73.6733 50.4899 70.921 50.8791 66.5963C51.2692 62.2717 52.0484 59.5194 52.0484 57.1604C52.0484 54.8014 53.2177 52.4424 53.2177 52.4424C53.2177 52.4424 54.7772 63.4507 55.5574 66.9897C56.3376 70.5277 56.3376 75.2457 56.7267 77.6046C57.1168 79.9636 58.2862 87.0406 58.2862 87.0406C58.2862 87.0406 57.506 81.1436 59.8456 77.998C62.1853 74.8523 62.9655 72.4933 64.5249 70.1343C66.0844 67.7753 68.0339 63.844 68.0339 63.844C68.0339 63.844 68.0339 70.1343 66.4745 74.0666C64.9151 77.998 63.7447 79.9636 63.7447 81.5369C63.7447 83.1093 63.7447 87.0416 63.7447 87.0416C63.7447 87.0416 67.6438 79.9646 69.9835 77.9989C72.3232 76.0333 73.8826 76.0333 74.6628 74.8533C75.443 73.6743 80.1223 70.922 80.1223 70.922C80.1223 70.922 77.3926 77.2123 76.6133 78.3923C75.8331 79.5713 71.934 83.1103 71.934 83.1103C71.934 83.1103 76.6133 80.7513 80.5124 79.5713C84.4115 78.3923 90.2612 77.2123 92.6008 77.2123C94.9405 77.2123 102.739 76.0333 102.739 76.0333C102.739 76.0333 95.7197 79.1789 91.4305 80.7513C87.1413 82.3236 84.4115 83.1103 82.8521 83.5036C81.2927 83.8969 81.2927 83.8969 81.2927 83.8969C81.2927 83.8969 86.7522 84.6836 92.2107 86.6492C97.6702 88.6149 99.2297 90.1882 100.009 91.3672C100.789 92.5462 101.179 94.5129 101.179 94.5129C101.179 94.5129 103.519 96.4785 103.519 98.0509C103.519 99.6232 92.9909 90.5806 89.0909 89.4016C85.1918 88.2216 79.0198 88.5222 79.0198 88.5222" stroke="black" stroke-miterlimit="10" stroke-linecap="round" stroke-linejoin="round"/>
</g>
<g opacity="0.3">
<path d="M100.714 144.644L100.304 140.648H126.562L126.153 144.644H100.714Z" stroke="black" stroke-miterlimit="10" stroke-linecap="round" stroke-linejoin="round"/>
<path d="M101.79 155.152H125.076L127.987 126.733H98.8793L101.79 155.152Z" stroke="black" stroke-miterlimit="10" stroke-linecap="round" stroke-linejoin="round"/>
<path d="M123.231 126.53C123.231 126.53 126.93 125.997 130.364 123.067C133.799 120.137 139.876 119.337 141.989 120.935C144.103 122.534 146.216 124.664 146.216 124.664C146.216 124.664 144.631 118.804 140.404 117.472C136.176 116.14 133.535 117.472 131.156 118.538C128.779 119.604 127.722 120.403 125.079 122.001C122.437 123.6 120.852 124.931 120.852 124.931C120.852 124.931 121.645 121.468 123.229 119.869C124.815 118.271 134.326 111.345 134.326 111.345C134.326 111.345 129.042 112.677 125.608 114.275C122.173 115.874 119.531 118.804 119.266 120.136C119.002 121.468 117.945 123.865 117.945 123.865L116.888 126.529C116.888 126.529 117.152 122.533 117.416 119.602C117.681 116.672 118.209 114.807 117.945 111.877C117.681 108.947 117.152 107.082 117.152 105.484C117.152 103.885 116.359 102.288 116.359 102.288C116.359 102.288 115.302 109.746 114.774 112.144C114.245 114.542 114.245 117.739 113.981 119.336C113.717 120.935 112.924 125.73 112.924 125.73C112.924 125.73 113.453 121.735 111.867 119.603C110.281 117.471 109.753 115.874 108.697 114.275C107.64 112.676 106.319 110.013 106.319 110.013C106.319 110.013 106.319 114.275 107.376 116.938C108.433 119.602 109.226 120.934 109.226 122C109.226 123.066 109.226 125.729 109.226 125.729C109.226 125.729 106.585 120.934 104.999 119.602C103.413 118.27 102.357 118.27 101.829 117.47C101.3 116.671 98.13 114.807 98.13 114.807C98.13 114.807 99.9799 119.069 100.507 119.868C101.036 120.668 103.678 123.065 103.678 123.065C103.678 123.065 100.507 121.466 97.8648 120.667C95.2231 119.867 91.2601 119.068 89.6746 119.068C88.089 119.068 82.8056 118.269 82.8056 118.269C82.8056 118.269 87.5614 120.4 90.4673 121.465C93.3733 122.531 95.2231 123.064 96.2802 123.33C97.3372 123.597 97.3372 123.597 97.3372 123.597C97.3372 123.597 93.6385 124.13 89.9398 125.461C86.2411 126.793 85.184 127.859 84.6555 128.657C84.1269 129.457 83.8627 130.789 83.8627 130.789C83.8627 130.789 82.28 132.124 82.28 133.19C82.28 134.256 89.4132 128.128 92.0558 127.329C94.6975 126.53 98.8793 126.733 98.8793 126.733" stroke="black" stroke-miterlimit="10" stroke-linecap="round" stroke-linejoin="round"/>
</g>
<g opacity="0.3">
<path d="M151.265 77.4037L151.735 72.8195H121.615L122.084 77.4037H151.265Z" stroke="black" stroke-miterlimit="10" stroke-linecap="round" stroke-linejoin="round"/>
<path d="M150.031 89.4573H123.319L119.98 56.8569H153.37L150.031 89.4573Z" stroke="black" stroke-miterlimit="10" stroke-linecap="round" stroke-linejoin="round"/>
<path d="M119.98 56.8569C119.98 56.8569 116.267 53.1803 114.103 52.2453C111.939 51.3103 107.919 49.7516 107.919 49.7516C107.919 49.7516 112.867 49.7516 116.267 51.3103C119.669 52.8689 123.07 55.0513 123.07 55.0513C123.07 55.0513 119.978 50.6866 117.505 47.5693C115.031 44.4519 109.465 39.1522 109.157 37.5936C108.848 36.0349 116.577 42.8932 121.833 46.9456C127.09 50.9979 128.017 53.8039 128.017 53.8039C128.017 53.8039 123.998 46.3219 120.906 39.7759C117.814 33.2289 115.031 29.4879 114.104 28.2415C113.177 26.9942 123.071 38.5295 126.471 44.1406C129.873 49.7516 132.036 53.1813 132.036 53.1813C132.036 53.1813 128.326 34.4762 127.707 30.1125C127.089 25.7479 126.47 21.3832 126.47 21.3832C126.47 21.3832 132.345 38.5295 133.272 41.6469C134.2 44.7642 135.746 50.3753 135.746 50.3753C135.746 50.3753 137.601 41.3346 138.219 35.7235C138.836 30.1125 141.62 22.0068 141.62 22.0068C141.62 22.0068 140.383 39.4646 140.074 43.8292C139.766 48.1939 139.456 52.5576 139.456 52.5576C139.456 52.5576 142.548 44.4519 145.331 40.7109C148.114 36.9699 153.06 31.9825 153.06 31.9825C153.06 31.9825 147.804 41.9582 146.567 45.0756C145.33 48.1929 143.784 53.8039 143.784 53.8039C143.784 53.8039 149.967 44.1396 152.75 41.0222C155.533 37.9049 158.315 36.3462 160.79 34.7876C163.263 33.2289 153.06 45.6983 151.823 48.5043C150.586 51.3103 149.04 53.8039 149.04 53.8039C149.04 53.8039 150.895 51.3103 155.842 49.4393C160.789 47.5683 169.446 45.6983 170.684 45.6983C171.921 45.6983 162.954 49.4393 159.862 50.6856C156.771 51.933 153.369 56.8559 153.369 56.8559" stroke="black" stroke-miterlimit="10" stroke-linecap="round" stroke-linejoin="round"/>
</g>
<path d="M374.112 174.32C377.637 159.888 365.202 144.391 346.336 139.705C327.47 135.019 309.318 142.919 305.792 157.35C302.266 171.781 314.702 187.279 333.568 191.965C352.433 196.651 370.586 188.751 374.112 174.32Z" fill="#00A8A8" stroke="#263238" stroke-miterlimit="10" stroke-linecap="round" stroke-linejoin="round"/>
<path d="M320.062 177.491C320.062 177.491 313.079 179.411 309.905 175.572C306.731 171.731 311.493 160.53 316.73 155.409C321.966 150.288 336.727 148.048 344.345 148.849C351.963 149.649 361.009 155.409 362.279 161.49C363.549 167.57 361.009 173.492 360.85 175.412C360.691 177.331 356.247 177.331 355.613 176.372C354.978 175.412 345.456 161.33 343.551 160.69C341.647 160.049 340.377 161.33 338.314 162.45C336.251 163.571 320.539 170.292 320.539 170.292L320.062 177.491Z" fill="#263238" stroke="#263238" stroke-miterlimit="10" stroke-linecap="round" stroke-linejoin="round"/>
<path d="M343.176 338.094L340.042 317.551L332.832 342.518L332.833 342.52C331.091 345.524 329.029 349.402 328.086 352.414C326.298 358.129 335.321 376.154 335.917 374.249C336.514 372.344 339.911 347.892 339.911 347.892C339.911 347.892 340.541 343.694 340.266 340.4L343.176 338.094Z" fill="white" stroke="#263238" stroke-miterlimit="10" stroke-linecap="round" stroke-linejoin="round"/>
<path d="M338.995 352.634C338.995 352.634 332.47 354.874 332.47 368.84C332.47 372.648 337.853 412.654 337.853 419.345C337.853 431.963 337.853 447.104 337.853 447.104H373.898L378.348 420.747L381.684 446.542H417.836C417.836 446.542 421.452 405.886 421.729 400.839C422.007 395.792 424.511 384.857 423.676 369.716C422.842 354.575 419.505 348.687 419.505 348.687L339.801 347.285L338.995 352.634Z" fill="#263238" stroke="#263238" stroke-miterlimit="10" stroke-linecap="round" stroke-linejoin="round"/>
<path d="M345.682 211.945C345.682 211.945 328.693 226.538 325.012 230.537C321.194 234.683 322.783 257.534 327.663 273.28C332.543 289.026 337.721 313.369 337.965 318.29C338.209 323.21 338.995 352.634 338.995 352.634C338.995 352.634 369.309 364.689 387.854 361.737C406.399 358.784 419.576 350.912 419.576 350.912C419.576 350.912 416.648 300.476 416.648 289.405C416.648 278.335 414.207 241.676 411.767 228.883C409.327 216.089 400.787 208.463 394.443 207.724C388.098 206.986 364.367 205.913 364.367 205.913L345.682 211.945Z" fill="#00A8A8" stroke="#263238" stroke-miterlimit="10" stroke-linecap="round" stroke-linejoin="round"/>
<path d="M337.101 208.489C337.101 208.489 344.77 230.181 346.047 230.395C347.325 230.61 350.733 227.174 350.733 227.174L364.366 205.912L358.945 186.293C358.945 186.293 355.845 196.677 349.881 203.335C343.918 209.992 337.101 208.489 337.101 208.489Z" fill="white" stroke="#263238" stroke-miterlimit="10" stroke-linecap="round" stroke-linejoin="round"/>
<path d="M351.916 204.25L341.863 219.945L337.101 208.489L351.916 204.25Z" fill="#263238" stroke="#263238" stroke-miterlimit="10" stroke-linecap="round" stroke-linejoin="round"/>
<path d="M343.076 154.768C343.076 154.768 334.346 161.809 327.363 164.369C320.38 166.929 316.888 167.89 316.888 167.89C316.888 167.89 319.11 182.131 319.745 186.132C320.38 190.133 321.808 196.853 324.665 199.733C327.522 202.614 334.505 209.494 337.679 211.255C340.853 213.015 346.249 211.575 347.836 210.775C349.423 209.975 358.628 195.893 359.105 193.973C359.581 192.053 358.946 186.292 358.946 186.292C358.946 186.292 363.073 184.052 363.708 181.811C364.343 179.571 362.914 171.25 361.645 170.129C360.375 169.009 358.312 170.29 357.994 171.57C357.677 172.851 356.724 174.77 356.724 174.77C356.724 174.77 356.566 171.41 355.296 169.33C354.026 167.25 354.026 166.45 351.01 164.049C347.995 161.65 343.076 154.768 343.076 154.768Z" fill="white" stroke="#263238" stroke-miterlimit="10" stroke-linecap="round" stroke-linejoin="round"/>
<path d="M332.442 186.293L332.918 190.614C332.918 190.614 338.156 190.454 340.537 187.894" stroke="#263238" stroke-miterlimit="10" stroke-linecap="round" stroke-linejoin="round"/>
<path d="M330.061 195.094C330.061 195.094 333.87 196.374 339.742 194.613C345.614 192.854 347.042 188.693 347.042 188.693" stroke="#263238" stroke-miterlimit="10" stroke-linecap="round" stroke-linejoin="round"/>
<path d="M328.951 175.572C328.951 175.572 322.126 173.332 320.063 177.491" stroke="#263238" stroke-miterlimit="10" stroke-linecap="round" stroke-linejoin="round"/>
<path d="M335.934 173.011C335.934 173.011 340.537 168.37 345.297 170.13" stroke="#263238" stroke-miterlimit="10" stroke-linecap="round" stroke-linejoin="round"/>
<path d="M328.243 181.72C328.694 182.966 328.559 184.159 327.942 184.387C327.324 184.614 326.458 183.789 326.007 182.544C325.556 181.299 325.69 180.105 326.308 179.878C326.926 179.65 327.792 180.475 328.243 181.72Z" fill="#263238"/>
<path d="M343.01 177.148C343.461 178.393 343.326 179.587 342.709 179.814C342.091 180.042 341.225 179.217 340.774 177.972C340.323 176.726 340.457 175.533 341.075 175.305C341.692 175.078 342.559 175.902 343.01 177.148Z" fill="#263238"/>
<path d="M379.07 234.786L392.978 284.975C392.978 284.975 392.246 287.436 392.734 288.912C393.222 290.387 393.466 291.618 393.466 291.618C393.466 291.618 389.562 311.3 386.146 323.356C382.73 335.411 370.529 361.736 371.017 364.688C371.505 367.641 368.577 389.783 370.041 390.767C371.505 391.751 374.922 393.228 375.898 393.228C376.873 393.228 381.266 393.719 382.73 393.719C384.194 393.719 389.562 393.473 390.538 391.505C391.513 389.536 391.269 388.307 389.806 388.798C388.341 389.29 385.902 389.536 385.902 389.536L384.926 387.568C384.926 387.568 386.146 378.956 384.926 372.56C383.706 366.163 383.219 363.949 383.219 363.949C383.219 363.949 413.72 314.005 414.94 304.656C416.16 295.306 418.112 284.974 418.112 280.298C418.112 275.624 413.231 233.553 411.768 228.879C410.304 224.205 409.571 219.53 405.667 215.594C401.764 211.657 399.079 211.657 397.127 211.657" fill="#00A8A8"/>
<path d="M379.07 234.786L392.978 284.975C392.978 284.975 392.246 287.436 392.734 288.912C393.222 290.387 393.466 291.618 393.466 291.618C393.466 291.618 389.562 311.3 386.146 323.356C382.73 335.411 370.529 361.736 371.017 364.688C371.505 367.641 368.577 389.783 370.041 390.767C371.505 391.751 374.922 393.228 375.898 393.228C376.873 393.228 381.266 393.719 382.73 393.719C384.194 393.719 389.562 393.473 390.538 391.505C391.513 389.536 391.269 388.307 389.806 388.798C388.341 389.29 385.902 389.536 385.902 389.536L384.926 387.568C384.926 387.568 386.146 378.956 384.926 372.56C383.706 366.163 383.219 363.948 383.219 363.948C383.219 363.948 413.72 314.005 414.94 304.656C416.16 295.306 418.112 284.974 418.112 280.298C418.112 275.624 413.231 233.553 411.768 228.879C410.304 224.205 409.571 219.53 405.667 215.594C401.764 211.657 399.079 211.657 397.127 211.657" stroke="#263238" stroke-miterlimit="10" stroke-linecap="round" stroke-linejoin="round"/>
<path d="M395.426 290.276C395.426 290.276 402.591 287.266 408.712 289.974" stroke="#263238" stroke-miterlimit="10" stroke-linecap="round" stroke-linejoin="round"/>
<path d="M400.054 284.857C400.054 284.857 408.265 282.9 413.489 289.072" stroke="#263238" stroke-miterlimit="10" stroke-linecap="round" stroke-linejoin="round"/>
<path d="M388.452 314.472C387.691 317.61 386.907 320.673 386.146 323.356C382.73 335.411 370.529 361.736 371.017 364.688C371.505 367.641 368.577 389.783 370.041 390.767C371.506 391.751 374.922 393.228 375.898 393.228C376.873 393.228 381.266 393.719 382.73 393.719C384.194 393.719 389.562 393.474 390.538 391.505C391.513 389.536 391.269 388.307 389.806 388.799C388.341 389.29 385.902 389.536 385.902 389.536L384.926 387.568C384.926 387.568 386.146 378.957 384.926 372.56C383.706 366.163 383.219 363.949 383.219 363.949C383.219 363.949 397.873 339.952 407.273 322.111C401.195 315.736 393.531 314.474 388.452 314.472Z" fill="white" stroke="#263238" stroke-miterlimit="10" stroke-linecap="round" stroke-linejoin="round"/>
<path d="M379.951 389.162C379.951 389.162 382.37 391.227 383.208 391.884C384.045 392.54 384.325 393.197 385.907 393.385" fill="white"/>
<path d="M379.951 389.162C379.951 389.162 382.37 391.227 383.208 391.884C384.045 392.54 384.325 393.197 385.907 393.385" stroke="#263238" stroke-miterlimit="10" stroke-linecap="round" stroke-linejoin="round"/>
<path d="M375.206 390.382C375.206 390.382 378.835 393.104 381.068 393.667L375.206 390.382Z" fill="white"/>
<path d="M375.206 390.382C375.206 390.382 378.835 393.104 381.068 393.667" stroke="#263238" stroke-miterlimit="10" stroke-linecap="round" stroke-linejoin="round"/>
<path d="M371.204 389.819C371.204 389.819 372.878 392.071 374.74 392.915L371.204 389.819Z" fill="white"/>
<path d="M371.204 389.819C371.204 389.819 372.878 392.071 374.74 392.915" stroke="#263238" stroke-miterlimit="10" stroke-linecap="round" stroke-linejoin="round"/>
<path d="M338.9 346.567C338.9 346.567 339.785 353.173 340.14 354.245C340.494 355.317 339.963 357.28 340.317 361.387C340.671 365.494 341.734 369.78 339.077 369.066C336.421 368.351 335.181 361.387 335.358 359.601C335.535 357.815 332.347 352.459 332.347 352.459" fill="white"/>
<path d="M338.9 346.567C338.9 346.567 339.785 353.173 340.14 354.245C340.494 355.317 339.963 357.28 340.317 361.387C340.671 365.494 341.734 369.78 339.077 369.066C336.421 368.351 335.181 361.387 335.358 359.601C335.535 357.815 332.347 352.459 332.347 352.459" stroke="#263238" stroke-miterlimit="10" stroke-linecap="round" stroke-linejoin="round"/>
<path d="M287.322 310.34C284.848 305.553 266.439 239.784 266.439 239.784C262.973 249.355 260.758 296.563 260.758 296.563L262.772 321.599L262.411 326.291C267.22 322.971 279.002 316.407 286.833 325.147C286.957 324.687 287.047 324.298 287.095 323.992C288.111 317.683 289.796 315.125 287.322 310.34Z" fill="#92E3A9" stroke="#263238" stroke-miterlimit="10" stroke-linecap="round" stroke-linejoin="round"/>
<path d="M281.388 316.671C282.638 316.889 283.85 317.231 284.986 317.736" stroke="#263238" stroke-miterlimit="10" stroke-linecap="round" stroke-linejoin="round"/>
<path d="M264.129 318.989C264.129 318.989 270.319 316.543 276.888 316.373" stroke="#263238" stroke-miterlimit="10" stroke-linecap="round" stroke-linejoin="round"/>
<path d="M283.781 314.038C283.781 314.038 278.353 310.722 274.007 312.027" stroke="#263238" stroke-miterlimit="10" stroke-linecap="round" stroke-linejoin="round"/>
<path d="M173.866 446.451L175.012 396.305L178.547 368.788L260.814 365.959L268.151 385.685L272.67 447.104H231.028L223.161 406.423L220.908 410.339L220.045 446.233L173.866 446.451Z" fill="#263238" stroke="#263238" stroke-miterlimit="10" stroke-linecap="round" stroke-linejoin="round"/>
<path d="M199.779 230.43C199.779 230.43 163.947 240.001 161.764 241.09C159.581 242.177 164.4 275.026 167.78 286.992C171.16 298.957 179.38 342.901 179.38 342.901L178.831 374.663C178.831 374.663 213.979 375.534 228.046 373.792C242.112 372.052 257.526 368.136 257.526 368.136C257.526 368.136 262.516 340.074 260.803 321.582C259.091 303.091 264.079 257.189 264.153 254.144C264.226 251.097 266.44 239.786 266.44 239.786C266.44 239.786 239.669 231.519 232.786 230.649C225.901 229.777 209.73 229.341 199.779 230.43Z" fill="#007CBF" stroke="#263238" stroke-miterlimit="10" stroke-linecap="round" stroke-linejoin="round"/>
<path d="M193.029 238.535C193.029 238.535 197.493 250.94 208.031 258.343L193.029 238.535Z" fill="#007CBF"/>
<path d="M193.029 238.535C193.029 238.535 197.493 250.94 208.031 258.343" stroke="#263238" stroke-miterlimit="10" stroke-linecap="round" stroke-linejoin="round"/>
<path d="M229.992 236.334C229.992 236.334 228.091 241.136 224.988 246.338L229.992 236.334Z" fill="#007CBF"/>
<path d="M229.992 236.334C229.992 236.334 228.091 241.136 224.988 246.338" stroke="#263238" stroke-miterlimit="10" stroke-linecap="round" stroke-linejoin="round"/>
<path d="M224.33 248.94L222.482 251.541" stroke="#263238" stroke-miterlimit="10" stroke-linecap="round" stroke-linejoin="round"/>
<path d="M211.429 371.12C219.758 370.624 235.024 369.276 244.935 365.788L211.429 371.12Z" fill="#007CBF"/>
<path d="M211.429 371.12C219.758 370.624 235.024 369.276 244.935 365.788" stroke="#263238" stroke-miterlimit="10" stroke-linecap="round" stroke-linejoin="round"/>
<path d="M205.508 371.389C205.508 371.389 206.456 371.367 208.086 371.294L205.508 371.389Z" fill="#007CBF"/>
<path d="M205.508 371.389C205.508 371.389 206.456 371.367 208.086 371.294" stroke="#263238" stroke-miterlimit="10" stroke-linecap="round" stroke-linejoin="round"/>
<path d="M239.798 362.066C228.866 363.5 212.297 364.8 199.385 361.987L239.798 362.066Z" fill="#007CBF"/>
<path d="M239.798 362.066C228.866 363.5 212.297 364.8 199.385 361.987" stroke="#263238" stroke-miterlimit="10" stroke-linecap="round" stroke-linejoin="round"/>
<path d="M251.42 360.185C251.42 360.185 248.659 360.757 244.223 361.436L251.42 360.185Z" fill="#007CBF"/>
<path d="M251.42 360.185C251.42 360.185 248.659 360.757 244.223 361.436" stroke="#263238" stroke-miterlimit="10" stroke-linecap="round" stroke-linejoin="round"/>
<path d="M250.513 344.893C243.897 348.752 231.267 355.311 218.744 357.384L250.513 344.893Z" fill="#007CBF"/>
<path d="M250.513 344.893C243.897 348.752 231.267 355.311 218.744 357.384" stroke="#263238" stroke-miterlimit="10" stroke-linecap="round" stroke-linejoin="round"/>
<path d="M255.232 341.978C255.232 341.978 254.338 342.582 252.752 343.555L255.232 341.978Z" fill="#007CBF"/>
<path d="M255.232 341.978C255.232 341.978 254.338 342.582 252.752 343.555" stroke="#263238" stroke-miterlimit="10" stroke-linecap="round" stroke-linejoin="round"/>
<path d="M194.708 217.93L196.213 235.396C196.213 235.396 201.511 248.051 213.828 247.234C225.907 246.434 227.694 230.933 227.694 230.933L225.251 212.497C225.251 212.497 214.642 221.423 208.694 220.647C202.746 219.87 194.708 217.93 194.708 217.93Z" fill="white" stroke="#263238" stroke-miterlimit="10" stroke-linecap="round" stroke-linejoin="round"/>
<path d="M182.435 197.246C182.435 197.246 180.239 194.425 178.579 196.977C176.918 199.529 178.885 206.379 181.913 207.856C184.941 209.333 185.741 209.333 185.741 209.333C185.741 209.333 189.172 216.183 190.989 218.197C192.805 220.212 206.03 229.747 209.214 230.285C212.398 230.823 216.949 229.882 218.726 228.002C220.504 226.123 226.142 213.229 227.015 210.14C227.888 207.051 228.039 206.379 228.084 204.499C228.13 202.619 228.035 201.007 228.035 201.007C228.035 201.007 231.212 196.307 231.568 192.546C231.925 188.786 231.061 185.965 229.075 185.428C227.09 184.891 224.862 188.92 224.862 188.92L218.166 168.237C218.166 168.237 215.904 162.596 213.922 161.924C211.94 161.253 197.645 162.999 191.589 165.55C185.534 168.102 179.609 170.788 179.141 173.609C178.673 176.429 182.435 197.246 182.435 197.246Z" fill="white" stroke="#263238" stroke-miterlimit="10" stroke-linecap="round" stroke-linejoin="round"/>
<path d="M193.393 168.298C193.393 168.298 181.958 170.592 181.292 172.47C180.626 174.348 179.713 177.894 180.889 180.606C182.065 183.318 183.385 197.295 183.385 197.295C183.385 197.295 185.142 201.677 183.915 201.05C182.689 200.425 181.78 195.209 181.381 194.583C180.982 193.958 175.844 183.944 174.279 180.188C172.713 176.433 176.11 172.887 176.957 172.052C177.805 171.218 178.663 169.966 178.663 169.966C178.663 169.966 177.774 163.916 180.529 161.205C183.284 158.493 203.247 154.32 204.918 153.695C206.589 153.069 208.329 149.522 209.798 148.688C211.266 147.853 215.561 149.94 218.125 155.155C220.689 160.37 220.448 161.831 219.595 162.874C218.742 163.917 218.742 163.917 218.742 163.917C218.742 163.917 221.628 164.335 222.775 168.298C223.921 172.262 225.486 176.017 225.41 179.147C225.335 182.276 224.878 188.294 224.863 188.919C224.847 189.545 224.139 188.952 223.569 186.866C222.999 184.78 217.779 169.551 216.992 167.882C216.205 166.213 215.21 164.544 214.811 163.918C214.41 163.292 197.429 163.917 193.393 168.298Z" fill="#263238" stroke="#263238" stroke-miterlimit="10" stroke-linecap="round" stroke-linejoin="round"/>
<path d="M209.213 230.284C212.397 230.821 216.948 229.881 218.725 228.001C220.503 226.122 226.141 213.228 227.014 210.139C227.888 207.05 228.038 206.378 228.083 204.497C228.129 202.618 228.034 201.005 228.034 201.005L225.224 188.324C225.124 188.479 225.044 188.609 224.984 188.71C225.301 192.626 225.888 200.187 225.763 201.275C225.594 202.752 223.956 204.364 222.352 204.632C220.747 204.9 213.183 203.692 209.846 203.961C206.509 204.229 205.414 205.438 202.851 206.781C200.288 208.124 195.015 211.348 193.674 211.751C192.332 212.154 189.824 211.214 188.79 209.871C187.757 208.528 183.383 197.296 183.383 197.296C183.384 198.018 182.649 199.396 182.649 199.396L185.74 209.334C185.74 209.334 189.171 216.184 190.988 218.198C192.805 220.212 206.029 229.747 209.213 230.284Z" fill="#263238" stroke="#263238" stroke-miterlimit="10" stroke-linecap="round" stroke-linejoin="round"/>
<path d="M207.638 185.024C207.638 185.024 205.445 187.576 205.826 188.382C206.206 189.188 211.179 203.961 211.007 205.573C210.834 207.184 208.684 207.99 206.965 207.453C205.247 206.916 204.164 202.081 204.164 202.081" fill="white"/>
<path d="M207.638 185.024C207.638 185.024 205.445 187.576 205.826 188.382C206.206 189.188 211.179 203.961 211.007 205.573C210.834 207.184 208.684 207.99 206.965 207.453C205.247 206.916 204.164 202.081 204.164 202.081" stroke="#263238" stroke-miterlimit="10" stroke-linecap="round" stroke-linejoin="round"/>
<path d="M209.935 183.68C209.935 183.68 214.678 180.323 218.885 182.606" stroke="#263238" stroke-width="3" stroke-miterlimit="10" stroke-linecap="round" stroke-linejoin="round"/>
<path d="M197.476 186.636C197.476 186.636 190.189 185.024 186.989 190.664" stroke="#263238" stroke-width="3" stroke-miterlimit="10" stroke-linecap="round" stroke-linejoin="round"/>
<path d="M196.736 193.496C197.001 194.608 196.663 195.655 195.982 195.834C195.302 196.014 194.537 195.259 194.273 194.147C194.009 193.035 194.346 191.988 195.027 191.808C195.707 191.628 196.472 192.384 196.736 193.496Z" fill="#263238" stroke="#263238" stroke-miterlimit="10" stroke-linecap="round" stroke-linejoin="round"/>
<path d="M214.238 188.864C214.501 189.975 214.164 191.023 213.484 191.202C212.803 191.382 212.038 190.626 211.774 189.514C211.511 188.402 211.848 187.355 212.528 187.175C213.209 186.996 213.974 187.752 214.238 188.864Z" fill="#263238" stroke="#263238" stroke-miterlimit="10" stroke-linecap="round" stroke-linejoin="round"/>
<path d="M201.881 213.899C201.881 213.899 211.163 215.645 216.64 209.467" stroke="#858585" stroke-miterlimit="10" stroke-linecap="round" stroke-linejoin="round"/>
<path d="M287.097 323.992C287.075 324.131 287.041 324.292 287.002 324.463" stroke="#263238" stroke-miterlimit="10" stroke-linecap="round" stroke-linejoin="round"/>
<path d="M286.833 325.147C279.002 316.406 267.22 322.97 262.411 326.291L259.917 349.427L258.733 353.778C258.733 353.778 249.872 363.349 248.746 365.307C247.62 367.265 245.857 368.787 244.536 369.876C243.216 370.964 240.389 371.834 240.142 373.138C239.896 374.443 244.194 375.096 245.505 374.443C246.816 373.79 250.136 370.31 250.136 370.31L248.058 375.966L264.925 383.362C264.925 383.362 265.909 378.359 266.413 375.313C266.918 372.267 267.738 365.088 267.985 363.783C268.226 362.513 285.157 332.429 286.979 324.562C286.937 324.743 286.89 324.936 286.833 325.147Z" fill="white" stroke="#263238" stroke-miterlimit="10" stroke-linecap="round" stroke-linejoin="round"/>
<path d="M161.763 241.09C161.763 241.09 157.348 245.223 156.386 249.356C155.424 253.49 140.789 305.229 137.364 313.061C133.939 320.892 133.356 327.201 135.225 330.247C137.093 333.293 170.831 357.477 170.831 357.477C170.831 357.477 174.421 369.659 175.427 372.705C176.433 375.751 178.249 380.972 178.249 380.972L191.777 374.663C191.777 374.663 194.298 377.491 195.993 378.796C197.688 380.101 199.829 380.754 200.293 379.449C200.755 378.144 198.256 374.445 198.256 374.445C198.256 374.445 197.024 371.835 196.861 369.659C196.698 367.484 193.555 363.568 192.308 361.61C191.06 359.652 180.661 352.473 180.661 352.473L159.447 318.935L167.781 286.992C167.781 286.992 160.254 250.008 161.763 241.09Z" fill="white" stroke="#263238" stroke-miterlimit="10" stroke-linecap="round" stroke-linejoin="round"/>
<path d="M159.446 318.934L169.049 291.835C169.049 291.835 160.254 250.009 161.764 241.09C161.764 241.09 157.349 245.223 156.387 249.356C155.425 253.49 140.79 305.229 137.365 313.061C133.94 320.892 133.356 327.201 135.225 330.247C135.756 331.111 138.67 334.942 144.43 338.123C146.394 334.335 151.493 325.532 162.571 324.768L159.446 318.934Z" fill="#92E3A9" stroke="#263238" stroke-miterlimit="10" stroke-linecap="round" stroke-linejoin="round"/>
<path d="M143.517 317.411C143.517 317.411 150.01 316.54 155.994 318.933" stroke="#263238" stroke-miterlimit="10" stroke-linecap="round" stroke-linejoin="round"/>
<path d="M152.194 315.453C152.194 315.453 157.551 316.976 159.446 318.933" stroke="#263238" stroke-miterlimit="10" stroke-linecap="round" stroke-linejoin="round"/>
<path d="M266.887 353.008C266.887 353.008 254.679 387.433 259.231 406.002C263.784 424.571 267.922 447.104 267.922 447.104H330.62C330.62 447.104 337.656 424.154 336.828 410.384C336.001 396.613 334.345 381.175 334.345 381.175L331.035 341.534H268.543L266.887 353.008Z" fill="#263238" stroke="#263238" stroke-miterlimit="10" stroke-linecap="round" stroke-linejoin="round"/>
<path d="M296.477 387.016C296.477 387.016 306.823 409.131 311.376 426.448C315.928 443.766 315.721 446.895 315.721 446.895" stroke="#858585" stroke-miterlimit="10" stroke-linecap="round" stroke-linejoin="round"/>
<path d="M308.065 405.585C308.065 405.585 319.032 395.988 322.343 384.513" stroke="#858585" stroke-miterlimit="10" stroke-linecap="round" stroke-linejoin="round"/>
<path d="M303.305 248.691L273.922 258.497C273.922 258.497 284.475 275.396 287.993 299.598C291.51 323.8 290.062 348.418 290.062 348.418C290.062 348.418 297.718 353.008 312.203 351.34C326.688 349.671 331.034 341.534 331.034 341.534C331.034 341.534 329.999 301.058 324.619 284.993C319.239 268.928 303.305 248.691 303.305 248.691Z" fill="#F0B313" stroke="#263238" stroke-miterlimit="10" stroke-linecap="round" stroke-linejoin="round"/>
<path d="M259.586 176.807C259.586 176.807 252.498 176.243 249.514 184.33C246.529 192.417 238.136 220.627 239.814 226.833C241.493 233.04 245.223 235.109 246.716 241.878C248.208 248.649 244.851 252.786 244.851 252.786C244.851 252.786 247.462 256.547 253.804 256.736C260.145 256.924 269.659 251.846 276 250.341C282.341 248.836 296.331 247.52 305.098 246.204C313.865 244.887 315.73 238.305 315.73 238.305C315.73 238.305 309.761 238.869 309.388 235.108C309.016 231.346 313.865 217.241 311.813 207.461C309.761 197.682 295.771 187.902 289.617 183.013C283.461 178.123 277.68 174.174 271.15 173.986C264.621 173.797 260.705 174.362 259.586 176.807Z" fill="#263238" stroke="#263238" stroke-miterlimit="10" stroke-linecap="round" stroke-linejoin="round"/>
<path d="M256.414 212.164C256.414 212.164 250.819 221.943 251.565 230.595C252.311 239.246 258.839 239.81 260.145 238.682" stroke="#858585" stroke-miterlimit="10" stroke-linecap="round" stroke-linejoin="round"/>
<path d="M292.228 197.87C292.228 197.87 305.658 210.47 307.709 223.824" stroke="#858585" stroke-miterlimit="10" stroke-linecap="round" stroke-linejoin="round"/>
<path d="M272.202 233.743L278.48 251.095C278.48 251.095 291.643 266.54 297.342 264.36C303.042 262.181 297.539 246.725 297.342 244.546C297.146 242.366 295.377 231.665 295.377 231.665C295.377 231.665 291.446 238.006 288.892 238.006C286.337 238.005 272.202 233.743 272.202 233.743Z" fill="white" stroke="#263238" stroke-miterlimit="10" stroke-linecap="round" stroke-linejoin="round"/>
<path d="M267.285 188.138C267.285 188.138 257.02 207.046 257.02 209.633C257.02 212.22 264.916 228.143 267.088 231.328C269.259 234.512 284.261 241.478 287.617 241.677C290.973 241.876 294.328 238.094 295.118 235.109C295.908 232.123 299.255 223.956 299.034 219.411C298.951 217.712 292.867 198.627 291.091 197.632C289.315 196.637 267.285 188.138 267.285 188.138Z" fill="white" stroke="#263238" stroke-miterlimit="10" stroke-linecap="round" stroke-linejoin="round"/>
<path d="M273.998 214.572C273.998 214.572 270.237 213.002 268.031 216.403" stroke="#263238" stroke-miterlimit="10" stroke-linecap="round" stroke-linejoin="round"/>
<path d="M283.986 210.909C283.986 210.909 284.764 206.854 289.434 208.031" stroke="#263238" stroke-miterlimit="10" stroke-linecap="round" stroke-linejoin="round"/>
<path d="M271.662 209.209C271.662 209.209 265.696 208.816 263.88 213.001" stroke="#263238" stroke-miterlimit="10" stroke-linecap="round" stroke-linejoin="round"/>
<path d="M279.706 205.416C279.706 205.416 282.948 200.969 287.488 202.539" stroke="#263238" stroke-miterlimit="10" stroke-linecap="round" stroke-linejoin="round"/>
<path d="M285.153 219.542C285.153 219.542 283.208 222.419 280.354 221.634" stroke="#263238" stroke-miterlimit="10" stroke-linecap="round" stroke-linejoin="round"/>
<path d="M290.732 221.372C290.732 221.372 286.97 226.996 276.592 227.781C276.592 227.781 283.467 232.751 287.489 231.443C291.51 230.135 290.732 221.372 290.732 221.372Z" fill="white" stroke="#263238" stroke-miterlimit="10" stroke-linecap="round" stroke-linejoin="round"/>
<path d="M260.767 219.672C260.767 219.672 257.394 218.103 256.875 222.288C256.356 226.473 265.048 227.912 265.048 227.912L260.767 219.672Z" fill="white" stroke="#263238" stroke-miterlimit="10" stroke-linecap="round" stroke-linejoin="round"/>
<path d="M294.34 204.593C294.34 204.593 294.376 202.888 296.028 203.314C297.681 203.741 300.453 208.746 300.161 211.74C299.87 214.734 297.908 214.803 297.908 214.803L294.34 204.593Z" fill="white" stroke="#263238" stroke-miterlimit="10" stroke-linecap="round" stroke-linejoin="round"/>
<path d="M268.061 250.886C268.061 250.886 245.067 266.342 244.084 269.115C243.102 271.889 259.806 354.122 259.806 354.122C259.806 354.122 237.599 404.452 243.102 413.171C248.605 421.89 273.563 430.212 274.743 431.797C275.923 433.382 285.944 389.987 290.268 373.541C294.592 357.094 301.667 327.372 302.06 313.303C302.453 299.234 296.753 280.608 294.788 274.466C292.823 268.323 289.285 257.623 289.285 257.623L268.061 250.886Z" fill="#A3A3A3" stroke="#263238" stroke-miterlimit="10" stroke-linecap="round" stroke-linejoin="round"/>
<path d="M273.895 241.088C273.895 241.088 290.071 256.83 289.285 257.622C288.499 258.415 279.262 272.285 279.262 272.285L265.112 251.48L273.895 241.088Z" fill="#A3A3A3" stroke="#263238" stroke-miterlimit="10" stroke-linecap="round" stroke-linejoin="round"/>
<path d="M300.094 256.829C300.094 256.829 314.244 274.267 320.139 286.75C326.035 299.233 328.786 321.426 328.786 330.145C328.786 338.863 328.786 346.591 328.786 346.591C328.786 346.591 334.879 388.203 336.844 395.138C338.809 402.074 341.954 414.953 341.954 414.953C341.954 414.953 344.312 414.161 344.115 405.442C343.919 396.723 340.775 361.255 338.023 347.186C335.272 333.117 334.128 309.79 332.359 305.629C330.59 301.469 330.59 301.469 330.59 301.469L351.587 295.323C351.587 295.323 338.493 283.368 334.237 265.06C332.301 256.731 327.999 252.273 325.445 250.49C322.89 248.707 304.22 246.726 301.075 246.924C297.932 247.12 300.094 256.829 300.094 256.829Z" fill="#A3A3A3" stroke="#263238" stroke-miterlimit="10" stroke-linecap="round" stroke-linejoin="round"/>
<path d="M300.094 256.829C300.094 256.829 300.683 254.254 301.862 254.65C303.041 255.046 313.064 260.793 314.046 260.199C315.029 259.604 303.827 245.931 301.666 243.95C299.504 241.969 297.343 240.78 297.343 240.78V244.545L300.094 256.829Z" fill="#A3A3A3" stroke="#263238" stroke-miterlimit="10" stroke-linecap="round" stroke-linejoin="round"/>
<path d="M319.157 257.028C319.157 257.028 326.036 279.419 326.822 289.128L319.157 257.028Z" fill="white"/>
<path d="M319.157 257.028C319.157 257.028 326.036 279.419 326.822 289.128" stroke="#263238" stroke-miterlimit="10" stroke-linecap="round" stroke-linejoin="round"/>
<path d="M323.079 301.836C323.079 301.836 327.079 285.702 328.04 284.733C329 283.765 336.841 280.376 337.482 280.215C338.121 280.054 343.242 283.765 344.043 284.572C344.843 285.379 348.364 287.638 347.723 288.929C347.083 290.22 345.003 289.252 343.882 289.252C342.761 289.252 337.481 292.641 337.161 293.124C336.841 293.608 335.081 297.642 334.441 298.771C333.8 299.899 323.079 301.836 323.079 301.836Z" fill="white" stroke="#263238" stroke-miterlimit="10" stroke-linecap="round" stroke-linejoin="round"/>
<path d="M345.502 285.879C345.502 285.879 343.397 285.03 342.765 285.348C342.134 285.666 334.659 289.169 334.238 289.7C333.817 290.231 333.29 291.08 333.29 291.08" stroke="#263238" stroke-miterlimit="10" stroke-linecap="round" stroke-linejoin="round"/>
<path d="M331.291 288.638C331.291 288.638 332.554 286.94 333.818 286.197C335.081 285.455 339.503 283.756 340.028 283.544C340.555 283.332 342.555 283.544 342.555 283.544" stroke="#263238" stroke-miterlimit="10" stroke-linecap="round" stroke-linejoin="round"/>
<path d="M339.292 281.634C339.292 281.634 330.87 284.712 330.344 285.455C329.817 286.197 329.817 286.197 329.817 286.197" stroke="#263238" stroke-miterlimit="10" stroke-linecap="round" stroke-linejoin="round"/>
<path d="M331.145 299.234C331.145 299.234 339.203 293.487 342.74 291.902C346.277 290.317 353.548 293.289 354.924 295.072C356.3 296.855 358.068 305.376 357.872 311.717C357.675 318.058 357.479 320.832 353.155 322.219C348.832 323.605 342.936 324.398 342.347 324.596C341.757 324.794 341.168 312.707 337.433 306.168C333.7 299.63 331.145 299.234 331.145 299.234Z" fill="#A3A3A3" stroke="#263238" stroke-miterlimit="10" stroke-linecap="round" stroke-linejoin="round"/>
<path d="M320.926 303.197C320.926 303.197 322.891 325.787 324.463 328.561C326.035 331.334 329.966 330.74 334.093 329.749C338.219 328.759 344.312 327.372 344.508 325.985C344.705 324.598 344.508 311.322 342.347 305.774C340.185 300.225 336.451 296.263 333.503 297.055C330.556 297.847 320.926 299.828 320.926 303.197Z" fill="#A3A3A3" stroke="#263238" stroke-miterlimit="10" stroke-linecap="round" stroke-linejoin="round"/>
<path d="M302.756 340.398L326.759 319.583L316.677 312.807L297.474 321.359C297.474 321.359 302.595 335.073 302.756 340.398Z" fill="white" stroke="#263238" stroke-miterlimit="10" stroke-linecap="round" stroke-linejoin="round"/>
<path d="M291.074 351.853C291.074 351.853 293.634 351.853 297.155 348.948C300.675 346.044 303.876 344.107 302.915 335.879C301.955 327.65 297.954 315.065 296.035 313.451C294.114 311.838 281.793 313.774 281.472 314.58C281.152 315.387 291.233 330.07 292.034 338.621C292.834 347.174 291.074 351.853 291.074 351.853Z" fill="#A3A3A3" stroke="#263238" stroke-miterlimit="10" stroke-linecap="round" stroke-linejoin="round"/>
<path d="M248.826 269.566C248.826 269.566 247.022 266.083 244.084 269.115C241.145 272.148 239.545 280.7 241.625 291.026C243.706 301.352 249.466 344.592 251.707 349.917C253.947 355.242 256.028 360.244 260.028 360.405C264.029 360.566 277.151 358.791 286.112 355.242C295.074 351.692 294.593 341.043 291.553 331.846C288.512 322.649 282.912 315.065 279.551 312.807C276.19 310.548 274.43 307.644 270.909 301.029C267.389 294.413 259.387 277.633 257.147 275.213" fill="#A3A3A3"/>
<path d="M248.826 269.566C248.826 269.566 247.022 266.083 244.084 269.115C241.145 272.148 239.545 280.7 241.625 291.026C243.706 301.352 249.466 344.592 251.707 349.917C253.947 355.242 256.028 360.244 260.028 360.405C264.029 360.566 277.151 358.791 286.112 355.242C295.074 351.692 294.593 341.043 291.553 331.846C288.512 322.649 282.912 315.065 279.551 312.807C276.19 310.548 274.43 307.644 270.909 301.029C267.389 294.413 259.387 277.633 257.147 275.213" stroke="#263238" stroke-miterlimit="10" stroke-linecap="round" stroke-linejoin="round"/>
<path d="M264.458 329.83C263.653 330.573 262.819 331.244 261.965 331.807" stroke="#263238" stroke-miterlimit="10" stroke-linecap="round" stroke-linejoin="round"/>
<path d="M274.317 315.909C274.317 315.909 271.095 322.56 266.527 327.709" stroke="#263238" stroke-miterlimit="10" stroke-linecap="round" stroke-linejoin="round"/>
<path d="M325.319 305.708C325.319 305.708 301.795 307.966 295.714 307.805C289.633 307.644 280.992 304.416 280.992 304.416C280.992 304.416 270.59 300.059 268.35 298.93C266.11 297.801 260.829 297.801 259.388 298.446C257.948 299.091 254.748 301.673 255.228 303.287C255.708 304.9 257.628 303.771 258.589 302.964C259.549 302.158 261.149 301.512 261.149 301.512L266.27 302.641L267.23 303.932C267.23 303.932 260.189 305.223 259.228 305.708C258.268 306.192 255.548 312.323 255.068 313.613C254.588 314.903 255.068 314.742 256.028 314.742C256.989 314.742 256.989 314.742 256.989 314.742C256.989 314.742 256.508 317.324 257.469 317.647C258.429 317.97 259.709 317.324 259.709 317.324C259.709 317.324 260.829 318.453 261.309 318.453C261.789 318.453 266.75 315.711 267.549 315.226C268.35 314.742 275.231 316.195 276.991 316.195C278.752 316.195 285.473 316.034 285.473 316.034C285.473 316.034 317.798 325.392 322.118 326.038C326.44 326.683 329.319 326.522 330.92 321.681C332.52 316.841 328.999 306.354 325.319 305.708Z" fill="white" stroke="#263238" stroke-miterlimit="10" stroke-linecap="round" stroke-linejoin="round"/>
<path d="M259.709 317.325C259.709 317.325 264.03 312.484 265.15 311.839C266.27 311.194 268.511 310.386 268.511 310.386" stroke="#263238" stroke-miterlimit="10" stroke-linecap="round" stroke-linejoin="round"/>
<path d="M256.988 314.743L261.468 309.418L266.27 307.483" stroke="#263238" stroke-miterlimit="10" stroke-linecap="round" stroke-linejoin="round"/>
<path d="M142.439 175.737C142.439 175.737 143.753 176.531 145.855 177.326C147.958 178.121 153.214 179.976 155.579 182.626C157.944 185.276 157.156 191.636 157.156 191.636" stroke="#263238" stroke-miterlimit="10" stroke-linecap="round" stroke-linejoin="round"/>
<path d="M112.436 197.781L110.377 202.234" stroke="#263238" stroke-miterlimit="10" stroke-linecap="round" stroke-linejoin="round"/>
<path d="M95.8388 183.794C95.8388 183.794 94.4052 190.62 92.957 192.184C91.5089 193.749 89.208 195.597 89.9717 199.01C90.7355 202.423 95.198 204.557 95.1844 205.126C95.1709 205.695 87.0939 207.26 87.3136 209.819C87.5343 212.379 89.7152 215.507 89.7152 215.507C89.7152 215.507 83.7436 217.498 83.2383 220.911C82.733 224.324 84.7668 227.737 84.7358 229.016C84.7048 230.296 81.1107 233.141 82.1842 235.416C83.2577 237.691 85.8035 237.407 85.9342 237.834C86.0649 238.26 84.4687 240.109 84.4415 241.247C84.4144 242.385 85.2363 243.38 85.2363 243.38H132.91L119.388 172.274L101.448 179.242L95.8388 183.794Z" fill="#CC4268" stroke="#263238" stroke-miterlimit="10" stroke-linecap="round" stroke-linejoin="round"/>
<path d="M160.423 345.158C160.423 345.158 170.256 367.722 171.546 373.259C172.837 378.797 173.449 403.451 171.402 413.053C167.674 430.537 156.991 447.103 156.991 447.103H102.837L91.6706 394.529L107.979 343.312L160.423 345.158Z" fill="white" stroke="#263238" stroke-miterlimit="10" stroke-linecap="round" stroke-linejoin="round"/>
<path d="M151.442 388.644L146.883 400.542L149.055 446.849" stroke="#263238" stroke-miterlimit="10" stroke-linecap="round" stroke-linejoin="round"/>
<path d="M159.562 330.185C159.562 330.185 169.13 338.39 170.276 341.466C171.423 344.543 172.155 364.85 172.681 368.338C173.207 371.825 170.89 375.106 170.89 375.106L162.64 354.389C162.64 354.389 161.846 345.159 161.657 344.543C161.468 343.928 159.959 339.005 159.959 339.005L159.562 330.185Z" fill="white" stroke="#263238" stroke-miterlimit="10" stroke-linecap="round" stroke-linejoin="round"/>
<path d="M167.448 349.056C167.448 349.056 167.563 352.748 167.905 355.414C168.248 358.081 169.351 363.004 167.083 364.234" fill="white"/>
<path d="M167.448 349.056C167.448 349.056 167.563 352.748 167.905 355.414C168.248 358.081 169.351 363.004 167.083 364.234" stroke="#263238" stroke-miterlimit="10" stroke-linecap="round" stroke-linejoin="round"/>
<path d="M124.842 242.803L137.852 243.213L147.152 243.522L157.969 252.649C157.969 252.649 167.045 298.186 167.789 301.058C168.534 303.929 160.081 325.468 159.422 327.518C158.762 329.57 160.422 345.159 160.422 345.159C160.422 345.159 156.259 349.056 142.788 350.902C129.316 352.749 113.789 347.005 113.789 347.005C113.789 347.005 124.003 319.929 126.184 305.366C126.184 305.366 128.081 277.264 127.459 269.265C126.839 261.264 124.842 242.803 124.842 242.803Z" fill="#CC4268" stroke="#263238" stroke-miterlimit="10" stroke-linecap="round" stroke-linejoin="round"/>
<path d="M157.296 310.204L136.234 320.976" stroke="#263238" stroke-miterlimit="10" stroke-linecap="round" stroke-linejoin="round"/>
<path d="M156.075 313.897L146.307 318.821" stroke="#263238" stroke-miterlimit="10" stroke-linecap="round" stroke-linejoin="round"/>
<path d="M121.278 227.724C121.278 227.724 129.103 255.041 130.116 259.877C131.128 264.712 141.146 270.401 147.286 267.272C153.426 264.143 151.454 258.171 150.415 254.472C149.375 250.775 147.152 243.522 147.152 243.522L149.52 221.336C149.52 221.336 142.087 231.291 139.379 232.429C136.673 233.568 121.278 227.724 121.278 227.724Z" fill="white" stroke="#263238" stroke-miterlimit="10" stroke-linecap="round" stroke-linejoin="round"/>
<path d="M135.919 234.912L146.173 244.888L148.692 223.484L135.919 234.912Z" fill="#263238" stroke="#263238" stroke-miterlimit="10" stroke-linecap="round" stroke-linejoin="round"/>
<path d="M146.533 243.8L145.994 253.594" stroke="#263238" stroke-miterlimit="10" stroke-linecap="round" stroke-linejoin="round"/>
<path d="M147.223 241.266C147.223 241.266 161.714 283.007 163.318 292.443C164.922 301.879 165.279 303.929 165.404 307.212C165.528 310.494 162.914 317.672 162.914 317.672C162.914 317.672 173.189 304.955 173.252 293.878C173.315 282.802 165.852 249.344 162.369 247.316C148.525 239.256 147.223 241.266 147.223 241.266Z" fill="#263238" stroke="#263238" stroke-miterlimit="10" stroke-linecap="round" stroke-linejoin="round"/>
<path d="M160.675 261.868C160.675 261.868 167.036 280.582 166.017 294.624" stroke="#A3A3A3" stroke-miterlimit="10" stroke-linecap="round" stroke-linejoin="round"/>
<path d="M111.507 195.028L118.08 185.642L148.501 216.786C148.501 216.786 146.652 234.99 146.638 235.559C146.625 236.128 148.524 239.256 148.524 239.256C148.524 239.256 149.353 239.967 150.034 240.963C150.716 241.958 150.01 241.958 149.835 243.38C149.66 244.802 150.63 245.514 151.318 246.224C152.006 246.936 153.682 247.646 154.654 248.215C155.628 248.784 154.751 250.064 154.015 251.344C153.279 252.624 152.233 255.041 153.441 257.602C154.649 260.162 155.364 259.735 157.432 261.725C159.499 263.716 156.493 265.565 156.493 265.565C156.493 265.565 158.054 265.138 159.334 264.712C160.613 264.285 161.212 262.863 160.672 261.868C160.131 260.872 159.081 257.602 159.519 257.033C159.955 256.464 163.953 254.473 165.119 252.908C166.285 251.343 165.022 251.059 166.023 250.49C167.024 249.921 169.029 248.642 169.5 246.651C169.971 244.66 167.631 242.242 168.354 241.532C169.076 240.82 171.788 236.442 171.819 235.162C171.85 233.883 170.242 231.718 170.242 231.718C170.242 231.718 171.29 230.867 171.954 226.742C172.617 222.618 169.404 221.338 169.176 219.063C168.949 216.788 172.268 213.659 172.319 205.695C172.37 197.731 159.311 195.313 158.912 194.318C158.513 193.322 158.974 191.758 158.742 189.625C158.512 187.492 153.382 183.794 153.382 183.794C153.382 183.794 153.997 181.661 154.454 180.239C154.912 178.817 154.237 177.537 151.753 175.261C149.269 172.986 137.255 162.32 132.205 161.182C127.155 160.044 118.699 165.591 117.698 166.16C116.697 166.729 108.705 164.738 106.259 166.729C103.813 168.72 103.026 172.133 102.428 173.555C101.83 174.977 99.7137 174.977 98.4098 176.399C97.1059 177.821 94.9743 190.194 94.9743 190.194" fill="#CC4268"/>
<path d="M111.507 195.028L118.08 185.642L148.501 216.786C148.501 216.786 146.652 234.99 146.638 235.559C146.625 236.128 148.524 239.256 148.524 239.256C148.524 239.256 149.353 239.967 150.034 240.963C150.716 241.958 150.01 241.958 149.835 243.38C149.66 244.802 150.63 245.514 151.318 246.224C152.006 246.936 153.682 247.646 154.654 248.215C155.628 248.784 154.751 250.064 154.015 251.344C153.279 252.624 152.233 255.041 153.441 257.602C154.649 260.162 155.364 259.735 157.432 261.725C159.499 263.716 156.493 265.565 156.493 265.565C156.493 265.565 158.054 265.138 159.334 264.712C160.613 264.285 161.212 262.863 160.672 261.868C160.131 260.872 159.081 257.602 159.519 257.033C159.955 256.464 163.953 254.473 165.119 252.908C166.285 251.343 165.022 251.059 166.023 250.49C167.024 249.921 169.029 248.642 169.5 246.651C169.971 244.66 167.631 242.242 168.354 241.532C169.076 240.82 171.788 236.442 171.819 235.162C171.85 233.883 170.242 231.718 170.242 231.718C170.242 231.718 171.29 230.867 171.954 226.742C172.617 222.618 169.404 221.338 169.176 219.063C168.949 216.788 172.268 213.659 172.319 205.695C172.37 197.731 159.311 195.313 158.912 194.318C158.513 193.322 158.974 191.758 158.742 189.625C158.512 187.492 153.382 183.794 153.382 183.794C153.382 183.794 153.997 181.661 154.454 180.239C154.912 178.817 154.237 177.537 151.753 175.261C149.269 172.986 137.255 162.32 132.205 161.182C127.155 160.044 118.699 165.591 117.698 166.16C116.697 166.729 108.705 164.738 106.259 166.729C103.813 168.72 103.026 172.133 102.428 173.555C101.83 174.977 99.7137 174.977 98.4098 176.399C97.1059 177.821 94.9743 190.194 94.9743 190.194" stroke="#263238" stroke-miterlimit="10" stroke-linecap="round" stroke-linejoin="round"/>
<path d="M124.025 238.189C124.025 238.189 138.751 290.392 139.403 297.161C140.053 303.929 117.016 348.236 112.318 357.466C107.62 366.696 97.3818 394.798 95.7265 404.439C94.0702 414.08 92.777 425.566 92.777 425.566C92.777 425.566 80.5105 419.618 72.4964 414.49C64.4823 409.362 63.1271 406.49 63.7622 405.465C64.3972 404.439 67.7552 391.722 67.7552 391.722C67.7552 391.722 60.8223 383.927 61.2492 383.106C61.6761 382.286 77.4332 327.724 77.4332 327.724C77.4332 327.724 81.5801 239.933 83.2073 239.933C84.8336 239.932 124.025 238.189 124.025 238.189Z" fill="#263238" stroke="#263238" stroke-miterlimit="10" stroke-linecap="round" stroke-linejoin="round"/>
<path d="M122.539 263.116L139.403 297.161" stroke="#A3A3A3" stroke-miterlimit="10" stroke-linecap="round" stroke-linejoin="round"/>
<path d="M92.957 240.547C92.957 240.547 80.8096 238.085 78.6964 241.368C76.5833 244.65 57.9532 300.237 56.8129 305.365C55.6726 310.493 90.5641 348.44 90.5641 348.44L108.554 336.337L87.3087 306.185L98.9238 263.11" fill="#263238"/>
<path d="M92.957 240.547C92.957 240.547 80.8096 238.085 78.6964 241.368C76.5833 244.65 57.9532 300.237 56.8129 305.365C55.6726 310.493 90.5641 348.44 90.5641 348.44L108.554 336.337L87.3087 306.185L98.9238 263.11" stroke="#263238" stroke-miterlimit="10" stroke-linecap="round" stroke-linejoin="round"/>
<path d="M95.8726 276.498L87.2003 303.525L106.604 332.851" stroke="#A3A3A3" stroke-miterlimit="10" stroke-linecap="round" stroke-linejoin="round"/>
<path d="M98.2385 268.018L96.9955 272.016" stroke="#A3A3A3" stroke-miterlimit="10" stroke-linecap="round" stroke-linejoin="round"/>
<path d="M106.604 332.851L87.0851 349.261L93.6066 357.261L114.132 341.261L106.604 332.851Z" fill="white" stroke="#263238" stroke-miterlimit="10" stroke-linecap="round" stroke-linejoin="round"/>
<path d="M112.688 342.082C112.688 342.082 128.936 360.132 130.747 360.953C132.558 361.774 136.126 365.671 137.099 367.517C138.072 369.362 139.437 371.824 140.836 372.85C142.236 373.875 142.409 375.106 139.953 375.721C137.498 376.336 135.255 376.542 133.9 373.669C132.544 370.797 130.371 368.132 130.371 368.132L116.489 378.592C116.489 378.592 113.501 367.516 113.149 365.259C112.796 363.003 112.071 359.311 112.071 359.311L102.727 350.285L112.688 342.082Z" fill="white" stroke="#263238" stroke-miterlimit="10" stroke-linecap="round" stroke-linejoin="round"/>
<path d="M89.9233 225.603C89.9233 225.603 88.5759 234.703 89.3474 237.834C90.1634 241.147 96.7758 240.553 95.4196 244.953C94.9831 246.371 93.2736 247.884 93.8089 249.493C94.3568 251.141 96.5086 251.235 97.7031 252.171C99.8995 253.892 99.1135 255.737 99.8599 258.172C100.4 259.932 102.258 260.54 102.761 261.936C103.357 263.589 102.213 264.622 104.033 266.419C107.202 269.548 109.585 270.117 110.016 269.832C110.446 269.548 109.617 268.836 111.615 267.841C113.614 266.845 117.467 264.997 116.799 263.432C116.142 261.892 115.484 260.353 115.469 260.315C116.399 262.475 119.288 260.294 120.077 259.156C121.879 256.561 119.123 253.768 119.445 250.963C119.803 247.856 123.273 246.255 123.661 243.124C124.041 240.057 120.883 237.945 121.57 235.131C121.883 233.852 122.058 232.43 122.058 232.43C122.058 232.43 121.139 229.585 119.752 228.59C118.366 227.594 117.898 223.612 117.79 222.19" fill="#CC4268"/>
<path d="M89.9233 225.603C89.9233 225.603 88.5759 234.703 89.3474 237.834C90.1634 241.147 96.7758 240.553 95.4196 244.953C94.9831 246.371 93.2736 247.884 93.8089 249.493C94.3568 251.141 96.5086 251.235 97.7031 252.171C99.8995 253.892 99.1135 255.737 99.8599 258.172C100.4 259.932 102.258 260.54 102.761 261.936C103.357 263.589 102.213 264.622 104.033 266.419C107.202 269.548 109.585 270.117 110.016 269.832C110.446 269.548 109.617 268.836 111.615 267.841C113.614 266.845 117.467 264.997 116.799 263.432C116.142 261.892 115.484 260.353 115.469 260.315C116.399 262.475 119.288 260.294 120.077 259.156C121.879 256.561 119.123 253.768 119.445 250.963C119.803 247.856 123.273 246.255 123.661 243.124C124.041 240.057 120.883 237.945 121.57 235.131C121.883 233.852 122.058 232.43 122.058 232.43C122.058 232.43 121.139 229.585 119.752 228.59C118.366 227.594 117.898 223.612 117.79 222.19" stroke="#263238" stroke-miterlimit="10" stroke-linecap="round" stroke-linejoin="round"/>
<path d="M115.297 180.512C115.297 180.512 103.894 197.229 104.766 200.766C105.637 204.302 114.338 226.968 117.314 229.218C120.289 231.468 132.277 236.773 136.26 236.933C140.241 237.094 143.15 235.486 144.81 232.754C146.47 230.021 152.795 218.93 152.853 216.519C152.911 214.107 147.807 190.967 146.858 190.646C145.908 190.324 115.297 180.512 115.297 180.512Z" fill="white" stroke="black" stroke-miterlimit="10" stroke-linecap="round" stroke-linejoin="round"/>
<path d="M132.722 198.272C132.722 198.272 132.393 202.734 132.801 204.184C133.208 205.634 136.955 210.877 137.044 211.769C137.133 212.661 135.673 213.554 133.663 214.334" stroke="#263238" stroke-miterlimit="10" stroke-linecap="round" stroke-linejoin="round"/>
<path d="M106.99 207.677C106.99 207.677 104.494 205.427 103.152 208.159C101.811 210.892 102.837 214.589 107.069 217.643C111.3 220.697 112.256 220.697 112.256 220.697L106.99 207.677Z" fill="white" stroke="#263238" stroke-miterlimit="10" stroke-linecap="round" stroke-linejoin="round"/>
<path d="M148.712 196.425C148.712 196.425 150.971 195.3 152.018 198.193C153.064 201.086 151.451 208.481 151.451 208.481L148.712 196.425Z" fill="white" stroke="#263238" stroke-miterlimit="10" stroke-linecap="round" stroke-linejoin="round"/>
<path d="M127.09 220.179C127.09 220.179 134.454 219.618 136.258 218.719C138.061 217.821 141.209 214.159 141.209 214.159C141.209 214.159 141.201 222.204 137.314 223.583C134.582 224.551 127.09 220.179 127.09 220.179Z" fill="white" stroke="#263238" stroke-miterlimit="10" stroke-linecap="round" stroke-linejoin="round"/>
<path d="M115.027 202.622C115.027 202.622 115.572 198.384 122.892 197.603L115.027 202.622Z" fill="white"/>
<path d="M115.027 202.622C115.027 202.622 115.572 198.384 122.892 197.603" stroke="#263238" stroke-miterlimit="10" stroke-linecap="round" stroke-linejoin="round"/>
<path d="M132.613 194.625C132.613 194.625 137.108 190.687 141.971 195.484L132.613 194.625Z" fill="white"/>
<path d="M132.613 194.625C132.613 194.625 137.108 190.687 141.971 195.484" stroke="#263238" stroke-miterlimit="10" stroke-linecap="round" stroke-linejoin="round"/>
<path d="M124.11 204.777C124.495 206.086 124.081 207.38 123.184 207.668C122.286 207.956 121.247 207.13 120.862 205.821C120.476 204.512 120.891 203.218 121.788 202.929C122.684 202.642 123.724 203.469 124.11 204.777Z" fill="#263238"/>
<path d="M139.16 200.574C139.545 201.883 139.131 203.177 138.233 203.465C137.336 203.753 136.297 202.926 135.911 201.617C135.526 200.308 135.94 199.014 136.837 198.726C137.735 198.438 138.774 199.265 139.16 200.574Z" fill="#263238"/>
<path d="M449.918 447.104H16.4812" stroke="#263238" stroke-miterlimit="10" stroke-linecap="round" stroke-linejoin="round"/>
<path d="M472.932 447.104H456.822" stroke="#263238" stroke-miterlimit="10" stroke-linecap="round" stroke-linejoin="round"/>
</svg>
